<svg width="53" height="51" viewBox="0 0 53 51" fill="none" xmlns="http://www.w3.org/2000/svg">
<path fill-rule="evenodd" clip-rule="evenodd" d="M0.500366 20.2496V36.4136L14.4994 44.4966L28.5004 36.4136V20.2496L14.4994 12.1676L0.500366 20.2496Z" fill="#B386BC"/>
<path fill-rule="evenodd" clip-rule="evenodd" d="M14.5 44.4961L28.5 36.4141L28.48 20.2501L14.48 28.3321L14.5 44.4961Z" fill="#CBAAD0"/>
<path fill-rule="evenodd" clip-rule="evenodd" d="M0.542725 20.2271L14.4997 28.2811L28.4567 20.2271L14.4997 12.1671L0.542725 20.2271Z" fill="#EADDED"/>
<path fill-rule="evenodd" clip-rule="evenodd" d="M35.5 40.7928C35.5 46.0388 31.246 50.2928 26 50.2928C20.754 50.2928 16.5 46.0388 16.5 40.7928C16.5 35.5468 20.754 31.2928 26 31.2928C31.246 31.2928 35.5 35.5468 35.5 40.7928Z" fill="#EADDED"/>
<path fill-rule="evenodd" clip-rule="evenodd" d="M37.5 2.37109L28.5 25.3511V31.6441C32.531 32.7421 35.5 36.4141 35.5 40.7931C35.5 42.1011 35.23 43.3911 34.707 44.5901L37.5 46.2031L51.5 38.1171L37.5 2.37109Z" fill="#CBAAD0"/>
<path fill-rule="evenodd" clip-rule="evenodd" d="M37.5 2.37109L28.5 25.3511V31.6441C32.531 32.7421 35.5 36.4141 35.5 40.7931C35.5 42.1011 35.23 43.3911 34.707 44.5901L37.5 46.2031V2.37109Z" fill="#B386BC"/>
<mask id="mask0_0_882" style="mask-type:luminance" maskUnits="userSpaceOnUse" x="0" y="0" width="53" height="51">
<path fill-rule="evenodd" clip-rule="evenodd" d="M0 0.999878H52.1207V50.7929H0V0.999878Z" fill="white"/>
</mask>
<g mask="url(#mask0_0_882)">
<path fill-rule="evenodd" clip-rule="evenodd" d="M35.4298 44.0859C35.4848 43.9339 35.5388 43.7769 35.5858 43.6209C35.6328 43.4609 35.6718 43.3009 35.7108 43.1369C35.7458 42.9919 35.7818 42.8519 35.8128 42.7069C35.8518 42.5119 35.8748 42.3089 35.9028 42.1089C35.9178 41.9919 35.9378 41.8829 35.9498 41.7659C35.9808 41.4409 35.9998 41.1169 35.9998 40.7929C35.9998 40.4809 35.9808 40.1759 35.9528 39.8709C35.9418 39.7579 35.9258 39.6489 35.9098 39.5389C35.8708 39.2149 35.8168 38.8949 35.7418 38.5739C35.7068 38.4299 35.6718 38.2849 35.6288 38.1369C35.5898 37.9879 35.5468 37.8359 35.4998 37.6879C35.4688 37.5899 35.4298 37.4959 35.3948 37.4019C35.2578 37.0239 35.0978 36.6559 34.9178 36.2969C34.9028 36.2619 34.8868 36.2309 34.8708 36.1949C34.7698 36.0079 34.6678 35.8239 34.5548 35.6449L34.4498 35.4689C34.3358 35.2889 34.2188 35.1169 34.0938 34.9449L33.9848 34.8009C32.7348 33.1289 30.9928 31.8909 28.9998 31.2579V25.4489L36.9998 5.01988V45.3399L35.3358 44.3789C35.3708 44.2809 35.3988 44.1839 35.4298 44.0859ZM25.9998 49.7929C21.7228 49.7929 18.1378 46.7889 17.2298 42.7809C17.0778 42.1289 17.0038 41.4609 16.9998 40.7929C16.9998 35.8279 21.0348 31.7929 25.9998 31.7929C26.3708 31.7929 26.7458 31.8199 27.1248 31.8709L27.2578 31.8909C27.5858 31.9379 27.9178 32.0079 28.2498 32.0939L28.3678 32.1289C30.0198 32.5779 31.5078 33.4919 32.6598 34.7619L32.7028 34.8129C32.8518 34.9769 32.9918 35.1449 33.1288 35.3199L33.1798 35.3909C33.7108 36.0939 34.1328 36.8709 34.4418 37.7029C34.4728 37.7849 34.5038 37.8669 34.5318 37.9489C34.5818 38.0979 34.6208 38.2419 34.6638 38.3909C34.7348 38.6449 34.7928 38.8989 34.8438 39.1519C34.8708 39.3159 34.8988 39.4809 34.9178 39.6449C34.9338 39.7459 34.9498 39.8519 34.9568 39.9569C34.9848 40.2309 34.9998 40.5119 34.9998 40.7929C34.9998 41.1019 34.9848 41.4099 34.9528 41.7149C34.9498 41.7459 34.9418 41.7769 34.9378 41.8089C34.9098 42.0819 34.8678 42.3559 34.8128 42.6249C34.8088 42.6489 34.7968 42.6759 34.7928 42.7029C34.7348 42.9769 34.6638 43.2459 34.5778 43.5119C34.5708 43.5429 34.5548 43.5739 34.5428 43.6089C34.4608 43.8629 34.3638 44.1129 34.2578 44.3589C32.8748 47.5549 29.6958 49.7929 25.9998 49.7929ZM14.9998 43.3359V28.6599L27.9998 21.1519V30.9959C27.3438 30.8589 26.6718 30.7929 25.9998 30.7929C20.4838 30.7929 15.9998 35.2769 15.9998 40.7929C15.9998 41.1019 16.0158 41.4179 16.0468 41.7339C16.0778 42.0469 16.1208 42.3519 16.1798 42.6559L14.9998 43.3359ZM0.999756 21.1519L13.9998 28.6599V43.3359L0.999756 35.8319V21.1519ZM27.3558 20.3709L14.4998 27.7929L1.64476 20.3709L14.4998 12.9489L27.3558 20.3709ZM37.9998 45.3359V5.01988L50.8788 37.9019L37.9998 45.3359ZM52.1208 38.3399L37.4998 0.999878L28.9998 22.7029V20.1639L14.4998 11.7929L-0.000244141 20.1639V36.4099L14.4998 44.7769L16.4268 43.6679C17.6638 47.7849 21.4838 50.7929 25.9998 50.7929C29.8948 50.7929 33.2698 48.5509 34.9178 45.2889L37.4998 46.7769L52.1208 38.3399Z" fill="#8E5AA4"/>
</g>
</svg>
