<svg width="232" height="236" viewBox="0 0 232 236" fill="none" xmlns="http://www.w3.org/2000/svg">
<path d="M22.9881 0H14.9961C6.71338 0 9.34601e-05 6.71329 9.34601e-05 14.996V23C9.34601e-05 24.6571 1.34176 25.996 2.99609 25.996C4.65042 25.996 5.99209 24.6571 5.99209 23V14.996C5.99209 10.0346 10.0269 6.004 14.9961 6.004H22.9881C24.6484 6.004 25.9961 4.65911 25.9961 3.008C25.9961 1.34628 24.6498 0 22.9881 0Z" fill="#202244"/>
<path d="M209.004 0H216.996C225.279 0 231.992 6.71329 231.992 14.996V23C231.992 24.6571 230.65 25.996 228.996 25.996C227.342 25.996 226 24.6571 226 23V14.996C226 10.0346 221.965 6.004 216.996 6.004H209.004C207.344 6.004 205.996 4.65911 205.996 3.008C205.996 1.34628 207.342 0 209.004 0Z" fill="#202244"/>
<path d="M22.9881 235.996H14.9961C6.71338 235.996 9.34601e-05 229.283 9.34601e-05 221V212.996C9.34601e-05 211.339 1.34176 210 2.99609 210C4.65042 210 5.99209 211.339 5.99209 212.996V221C5.99209 225.961 10.0269 229.992 14.9961 229.992H22.9881C24.6484 229.992 25.9961 231.337 25.9961 232.988C25.9961 234.65 24.6498 235.996 22.9881 235.996Z" fill="#202244"/>
<path d="M209.004 235.996H216.996C225.279 235.996 231.992 229.283 231.992 221V212.996C231.992 211.339 230.65 210 228.996 210C227.342 210 226 211.339 226 212.996V221C226 225.961 221.965 229.992 216.996 229.992H209.004C207.344 229.992 205.996 231.337 205.996 232.988C205.996 234.65 207.342 235.996 209.004 235.996Z" fill="#202244"/>
</svg>
