<svg width="22" height="22" viewBox="0 0 22 22" fill="none" xmlns="http://www.w3.org/2000/svg">
<g id="Icon">
<path id="Fill 1" fill-rule="evenodd" clip-rule="evenodd" d="M21.2504 12.4984C21.2504 5.77821 15.782 0.309814 9.06057 0.309814V1.54925C15.0982 1.54925 20.011 6.46114 20.011 12.4984H21.2504ZM1.53688 7.41241L3.33438 5.61491C3.3477 5.60159 3.37187 5.59446 3.40317 5.59446C3.4735 5.59446 3.58009 5.62948 3.67429 5.72398L6.3239 8.37328C6.46055 8.51024 6.47263 8.67353 6.43297 8.7135L5.60719 9.53897C4.5797 10.5668 5.76336 12.8241 7.46294 14.5234C8.30886 15.3696 9.23843 16.0448 10.0822 16.4262C11.4707 17.0531 12.1592 16.6645 12.4461 16.3779L13.2728 15.5521C13.3115 15.5124 13.4748 15.5245 13.6118 15.6612L16.2611 18.312C16.398 18.4487 16.4101 18.611 16.3714 18.6507L14.5727 20.4482C14.0741 20.9483 12.865 20.8488 11.3387 20.182C9.57122 19.4111 7.60919 17.9984 5.81542 16.2059C4.13536 14.5258 2.68801 12.4876 1.84179 10.6151C1.15793 9.10207 1.04421 7.90508 1.53688 7.41241ZM0.712658 11.1245C1.61683 13.129 3.15745 15.3005 4.93914 17.0822C6.8395 18.9825 8.93725 20.4869 10.8435 21.3186C11.8809 21.7713 12.8105 21.9975 13.591 21.9975C14.3694 21.9975 15.0012 21.7738 15.4489 21.3245L17.2477 19.5273C17.7936 18.9801 17.745 18.0421 17.1377 17.4357L14.4881 14.7849C13.8804 14.1785 12.9425 14.1302 12.3965 14.6758L11.5711 15.5013C11.3421 15.672 9.92849 15.2364 8.33922 13.6471C6.74748 12.0566 6.31181 10.6418 6.48379 10.4153L7.31049 9.58979C7.85615 9.04288 7.80657 8.10339 7.20018 7.497L4.54933 4.8477C3.94294 4.24131 3.00376 4.19142 2.45779 4.73863L0.660602 6.53612C-0.23768 7.43286 -0.219398 9.06334 0.712658 11.1245Z" fill="#0961F5"/>
<path id="Fill 4" fill-rule="evenodd" clip-rule="evenodd" d="M9.29004 3.69556V4.93499C13.5884 4.93499 17.0852 8.43175 17.0852 12.7286H18.3246C18.3246 7.74789 14.2723 3.69556 9.29004 3.69556Z" fill="#0961F5"/>
<path id="Fill 6" fill-rule="evenodd" clip-rule="evenodd" d="M13.9296 12.7283H15.169C15.169 9.48811 12.5315 6.85059 9.29004 6.85059V8.09002C11.8489 8.09002 13.9296 10.1707 13.9296 12.7283Z" fill="#0961F5"/>
</g>
</svg>
