<svg width="94" height="60" viewBox="0 0 94 60" fill="none" xmlns="http://www.w3.org/2000/svg">
<g id="BUTTON">
<g id="Button BG">
<rect width="94" height="60" rx="30" fill="#E8F1FF"/>
<rect x="1" y="1" width="92" height="58" rx="29" stroke="#B4BDC4" stroke-opacity="0.4" stroke-width="2"/>
</g>
<path id="Fill 1" fill-rule="evenodd" clip-rule="evenodd" d="M61.463 25.6794C61.463 25.1964 61.071 24.8044 60.588 24.8044H36.1242C35.6412 24.8044 35.2492 25.1964 35.2492 25.6794C35.2492 26.1624 35.6412 26.5544 36.1242 26.5544H60.588C60.8202 26.5544 61.0436 26.4634 61.2081 26.2966C61.372 26.1327 61.463 25.911 61.463 25.6794ZM51.2663 29.6578C51.2681 29.4256 51.1747 29.2022 51.0108 29.0382C50.8469 28.8737 50.6235 28.7828 50.3913 28.7828H36.1242C35.6412 28.7828 35.2492 29.1748 35.2492 29.6578C35.2492 30.1402 35.6412 30.5328 36.1242 30.5328H50.3913C50.6235 30.5328 50.8469 30.4394 51.0108 30.2755C51.1747 30.111 51.2681 29.8905 51.2663 29.6578ZM50.0723 33.6291C50.0723 33.3969 49.9789 33.1735 49.8144 33.0096C49.6505 32.8457 49.4294 32.7541 49.1973 32.7541H36.1242C35.6412 32.7541 35.2492 33.1461 35.2492 33.6291C35.2492 34.1127 35.6412 34.5041 36.1242 34.5041H49.1973C49.4294 34.5041 49.6505 34.4131 49.8144 34.2492C49.9789 34.0853 50.0723 33.8618 50.0723 33.6291ZM42.1448 21.7052C42.1424 21.9379 42.2358 22.1613 42.3997 22.3252C42.5636 22.4892 42.787 22.5825 43.0198 22.5802H53.693C54.176 22.5802 54.568 22.1905 54.568 21.7052C54.568 21.2222 54.176 20.8302 53.693 20.8302H43.0198C42.787 20.8302 42.5636 20.9235 42.3997 21.088C42.2358 21.2519 42.1424 21.4753 42.1448 21.7052ZM64.7122 17.5833V39.9524C64.7122 40.2762 64.4526 40.5357 64.1288 40.5357H61.6911V38.7292C62.6343 37.699 63.1558 36.3544 63.1558 34.9603C63.1605 32.4467 61.4992 30.2364 59.0842 29.5463C56.6709 28.8533 54.0891 29.8485 52.7655 31.9817C51.4413 34.1167 51.6945 36.8718 53.385 38.7292V40.5357H32.5833C32.2596 40.5357 32 40.2762 32 39.9524V17.5833C32 17.2596 32.2596 17 32.5833 17H64.1288C64.4526 17 64.7122 17.2596 64.7122 17.5833ZM55.1309 40.0277V44.0772C55.1309 44.2843 55.24 44.4756 55.4179 44.5806C55.5976 44.6856 55.8163 44.6873 55.9989 44.5876L57.1154 43.9698C57.3773 43.824 57.6987 43.824 57.963 43.9698L59.0772 44.5876C59.2598 44.6873 59.4785 44.6856 59.6558 44.5806C59.8337 44.4756 59.9434 44.2843 59.9434 44.0772V40.0277C58.4233 40.7615 56.6528 40.7615 55.1309 40.0277ZM61.4058 34.9603C61.4058 37.0952 59.6745 38.8289 57.5372 38.8289C55.4016 38.8289 53.6679 37.0952 53.6679 34.9603C53.6679 32.8229 55.4016 31.0887 57.5372 31.0887C59.6745 31.091 61.4058 32.8229 61.4058 34.9603Z" fill="#167F71"/>
</g>
</svg>
