<svg width="16" height="16" viewBox="0 0 16 16" fill="none" xmlns="http://www.w3.org/2000/svg">
<rect width="16" height="16" fill="#353535"/>
<g id="25_SINGLE COURSE DETAILS - CURRICULCUM" clip-path="url(#clip0_0_1)">
<rect width="428" height="926" transform="translate(-151 -515)" fill="white"/>
<g id="MAIN BACKGROUND">
<rect id="MAIN BACKGROUND_2" x="-151" y="-515" width="428" height="1626" fill="#F5F9FF"/>
</g>
<g id="01">
<g id="Rectangle" filter="url(#filter0_d_0_1)">
<rect x="-117" y="-120" width="360" height="560" rx="16" fill="white"/>
</g>
<g id="Group 5">
<path id="Fill 1" fill-rule="evenodd" clip-rule="evenodd" d="M8 1.33333C4.318 1.33333 1.33333 4.318 1.33333 8C1.33333 11.682 4.318 14.6667 8 14.6667C11.682 14.6667 14.6667 11.682 14.6667 8C14.6667 4.318 11.682 1.33333 8 1.33333ZM8 16C3.58067 16 0 12.4193 0 8C0 3.58067 3.58067 0 8 0C12.4193 0 16 3.58067 16 8C16 12.4193 12.4193 16 8 16Z" fill="#111224"/>
<path id="Fill 3" fill-rule="evenodd" clip-rule="evenodd" d="M11.3335 11.6667C11.1695 11.6667 11.0082 11.604 10.8855 11.492L7.55216 8.492C7.41416 8.36733 7.3335 8.18733 7.3335 8V4.66667C7.3335 4.29933 7.63283 4 8.00016 4C8.3675 4 8.66683 4.29933 8.66683 4.66667V7.70067L11.7815 10.5C11.9895 10.6847 12.0602 10.9793 11.9608 11.2393C11.8622 11.4973 11.6122 11.6693 11.3335 11.6667Z" fill="#111224"/>
</g>
</g>
</g>
<defs>
<filter id="filter0_d_0_1" x="-127" y="-126" width="380" height="580" filterUnits="userSpaceOnUse" color-interpolation-filters="sRGB">
<feFlood flood-opacity="0" result="BackgroundImageFix"/>
<feColorMatrix in="SourceAlpha" type="matrix" values="0 0 0 0 0 0 0 0 0 0 0 0 0 0 0 0 0 0 127 0" result="hardAlpha"/>
<feOffset dy="4"/>
<feGaussianBlur stdDeviation="5"/>
<feColorMatrix type="matrix" values="0 0 0 0 0 0 0 0 0 0 0 0 0 0 0 0 0 0 0.08 0"/>
<feBlend mode="normal" in2="BackgroundImageFix" result="effect1_dropShadow_0_1"/>
<feBlend mode="normal" in="SourceGraphic" in2="effect1_dropShadow_0_1" result="shape"/>
</filter>
<clipPath id="clip0_0_1">
<rect width="428" height="926" fill="white" transform="translate(-151 -515)"/>
</clipPath>
</defs>
</svg>
