<svg width="19" height="20" viewBox="0 0 19 20" fill="none" xmlns="http://www.w3.org/2000/svg">
<g id="ICON">
<path id="Fill 1" fill-rule="evenodd" clip-rule="evenodd" d="M17.2727 12.7271C16.7718 12.7271 16.3636 13.1352 16.3636 13.6361V18.1816H1.81818V13.6361C1.81818 13.1352 1.41 12.7271 0.909091 12.7271C0.408182 12.7271 0 13.1352 0 13.6361V18.3098C0.0181818 18.7743 0.216364 19.2152 0.557273 19.5307C0.898182 19.8471 1.35273 20.018 1.81818 19.9998H16.3636C16.8291 20.018 17.2836 19.8471 17.6245 19.5307C17.9655 19.2152 18.1636 18.7743 18.1818 18.3098V13.6361C18.1818 13.1352 17.7736 12.7271 17.2727 12.7271Z" fill="#1D1D1B"/>
<path id="Fill 4" fill-rule="evenodd" clip-rule="evenodd" d="M8.42738 14.2541C8.49829 14.3177 8.58011 14.375 8.66466 14.4177C8.79284 14.4959 8.94193 14.5377 9.09102 14.545C9.20829 14.545 9.3292 14.5204 9.43556 14.4741L9.54557 14.4104C9.60193 14.3786 9.6592 14.3431 9.7092 14.3004L14.2547 9.41042C14.5992 9.04042 14.581 8.46497 14.2156 8.12133C13.8456 7.78042 13.271 7.79769 12.9265 8.16315L10.0001 11.3177V0.908603C10.0001 0.407694 9.59193 -0.000488281 9.09102 -0.000488281C8.59011 -0.000488281 8.18193 0.407694 8.18193 0.908603V11.3177L5.2092 8.11769C4.86557 7.75133 4.29011 7.73406 3.92375 8.07951C3.55466 8.42042 3.53738 8.99769 3.88193 9.36497L8.42738 14.2541Z" fill="#1D1D1B"/>
</g>
</svg>
