<svg width="54" height="55" viewBox="0 0 54 55" fill="none" xmlns="http://www.w3.org/2000/svg">
<path fill-rule="evenodd" clip-rule="evenodd" d="M13.75 29.2035V41.4502C14.8455 41.837 15.5797 42.871 15.5834 44.0352V45.8685C15.5834 46.3736 15.1718 46.7852 14.6667 46.7852H5.50004C4.99496 46.7852 4.58337 46.3736 4.58337 45.8685V44.0352C4.58704 42.871 5.32129 41.837 6.41671 41.4502V29.2035C5.32129 28.8167 4.58704 27.7827 4.58337 26.6185V24.7852C4.58337 24.2801 4.99496 23.8685 5.50004 23.8685H14.6667C15.1718 23.8685 15.5834 24.2801 15.5834 24.7852V26.6185C15.5797 27.7827 14.8455 28.8167 13.75 29.2035Z" fill="#96A1C3"/>
<path fill-rule="evenodd" clip-rule="evenodd" d="M13.7499 29.2035V41.4502C14.8454 41.837 15.5796 42.871 15.5833 44.0352V45.8685C15.5833 46.3736 15.1717 46.7852 14.6666 46.7852H8.24994C8.24628 46.7604 8.24628 46.7348 8.24994 46.7137V44.7337C8.25361 43.5301 8.97319 42.4457 10.0833 41.9837V28.7168C8.95853 28.2474 8.23161 27.141 8.24994 25.92V23.94C8.24628 23.9189 8.24628 23.8933 8.24994 23.8685H14.6666C15.1717 23.8685 15.5833 24.2801 15.5833 24.7852V26.6185C15.5796 27.7827 14.8454 28.8167 13.7499 29.2035Z" fill="#CCD3EB"/>
<path fill-rule="evenodd" clip-rule="evenodd" d="M30.25 29.2035V41.4502C31.3455 41.837 32.0797 42.871 32.0834 44.0352V45.8685C32.0834 46.3736 31.6718 46.7852 31.1667 46.7852H22C21.495 46.7852 21.0834 46.3736 21.0834 45.8685V44.0352C21.087 42.871 21.8213 41.837 22.9167 41.4502V29.2035C21.8213 28.8167 21.087 27.7827 21.0834 26.6185V24.7852C21.0834 24.2801 21.495 23.8685 22 23.8685H31.1667C31.6718 23.8685 32.0834 24.2801 32.0834 24.7852V26.6185C32.0797 27.7827 31.3455 28.8167 30.25 29.2035Z" fill="#96A1C3"/>
<path fill-rule="evenodd" clip-rule="evenodd" d="M30.2499 29.2035V41.4502C31.3454 41.837 32.0796 42.871 32.0833 44.0352V45.8685C32.0833 46.3736 31.6717 46.7852 31.1666 46.7852H24.7499C24.7463 46.7604 24.7463 46.7348 24.7499 46.7137V44.7337C24.7536 43.5301 25.4732 42.4457 26.5833 41.9837V28.7168C25.4585 28.2474 24.7316 27.141 24.7499 25.92V23.94C24.7463 23.9189 24.7463 23.8933 24.7499 23.8685H31.1666C31.6717 23.8685 32.0833 24.2801 32.0833 24.7852V26.6185C32.0796 27.7827 31.3454 28.8167 30.2499 29.2035Z" fill="#CCD3EB"/>
<path fill-rule="evenodd" clip-rule="evenodd" d="M46.75 29.2035V41.4502C47.8455 41.837 48.5797 42.871 48.5834 44.0352V45.8685C48.5834 46.3736 48.1718 46.7852 47.6667 46.7852H38.5C37.995 46.7852 37.5834 46.3736 37.5834 45.8685V44.0352C37.587 42.871 38.3213 41.837 39.4167 41.4502V29.2035C38.3213 28.8167 37.587 27.7827 37.5834 26.6185V24.7852C37.5834 24.2801 37.995 23.8685 38.5 23.8685H47.6667C48.1718 23.8685 48.5834 24.2801 48.5834 24.7852V26.6185C48.5797 27.7827 47.8455 28.8167 46.75 29.2035Z" fill="#96A1C3"/>
<path fill-rule="evenodd" clip-rule="evenodd" d="M49.5 18.3682C49.5 18.8732 49.0884 19.2848 48.5833 19.2848H4.58331C4.19648 19.2848 3.85273 19.041 3.72073 18.6798C3.59148 18.3141 3.70606 17.9062 4.00673 17.6623L4.25423 17.4515L13.0084 10.2932L22.7516 2.31549C23.1531 1.98641 23.5968 1.71416 24.0735 1.50333C24.3815 1.35299 24.7069 1.23474 25.0433 1.15224C26.0535 0.88366 27.1131 0.88366 28.1233 1.15224C28.3525 1.20541 28.578 1.28058 28.7925 1.37408L29.0931 1.50333C29.4626 1.66741 29.8127 1.87183 30.1391 2.10833L30.415 2.31549L38.665 9.07224L41.4901 11.3822L42.1666 11.9515L44.9991 14.2716L47.7491 16.5165L48.8766 17.4332L49.1241 17.6449C49.357 17.8136 49.4963 18.0822 49.5 18.3682ZM46.75 29.2032V41.4507C47.8454 41.8376 48.5796 42.8707 48.5833 44.0348V45.8682C48.5833 46.3742 48.1717 46.7848 47.6666 46.7848H41.25C41.2463 46.761 41.2463 46.7344 41.25 46.7133V44.7342C41.2536 43.5297 41.9732 42.4462 43.0833 41.9842V28.7164C41.9586 28.2471 41.2316 27.1407 41.25 25.9197V23.9397C41.2463 23.9186 41.2463 23.8929 41.25 23.8682H47.6666C48.1717 23.8682 48.5833 24.2797 48.5833 24.7848V26.6182C48.5796 27.7832 47.8454 28.8163 46.75 29.2032Z" fill="#CCD3EB"/>
<path fill-rule="evenodd" clip-rule="evenodd" d="M47.7848 16.5348H12.8332C12.4464 16.5348 12.1026 16.2909 11.9706 15.9298C11.8414 15.564 11.9559 15.1561 12.2566 14.9123L12.5041 14.7014L21.2583 7.54319L28.7924 1.37402L29.093 1.50327C29.4624 1.66736 29.8135 1.87177 30.1389 2.10827L30.4149 2.31544L38.6649 9.07219L41.49 11.3822L42.1665 11.9514L44.999 14.2715L47.7848 16.5348Z" fill="#F5F7FF"/>
<path fill-rule="evenodd" clip-rule="evenodd" d="M3.66663 17.4519H49.5C51.018 17.4519 52.25 18.6839 52.25 20.2019V22.9519C52.25 24.4699 51.018 25.7019 49.5 25.7019H3.66663C2.14863 25.7019 0.916626 24.4699 0.916626 22.9519V20.2019C0.916626 18.6839 2.14863 17.4519 3.66663 17.4519Z" fill="#CCD3EB"/>
<path fill-rule="evenodd" clip-rule="evenodd" d="M26.9306 9.20199H26.0139C25.7628 9.20199 25.5556 8.99757 25.5556 8.74365C25.5556 8.48974 25.7628 8.28532 26.0139 8.28532H28.4165C28.9216 8.28532 29.3332 7.87374 29.3332 7.36865C29.3332 6.86357 28.9216 6.45199 28.4165 6.45199H27.4999V5.53532C27.4999 5.03024 27.0883 4.61865 26.5832 4.61865C26.0781 4.61865 25.6665 5.03024 25.6665 5.53532V6.45199C24.4024 6.54824 23.4537 7.6519 23.5499 8.91874C23.6471 10.1828 24.7499 11.1316 26.0139 11.0353H26.9306C27.1845 11.0353 27.3889 11.2397 27.3889 11.4937C27.3889 11.7476 27.1845 11.952 26.9306 11.952H24.7499C24.2448 11.952 23.8332 12.3636 23.8332 12.8687C23.8332 13.3737 24.2448 13.7853 24.7499 13.7853H25.6665V14.702C25.6665 15.2071 26.0781 15.6187 26.5832 15.6187C27.0883 15.6187 27.4999 15.2071 27.4999 14.702V13.7028C28.6283 13.4306 29.3726 12.3535 29.2296 11.2003C29.0829 10.0472 28.0948 9.18365 26.9306 9.20199Z" fill="#F5F7FF"/>
<path fill-rule="evenodd" clip-rule="evenodd" d="M48.5833 44.9515H4.58333C2.0515 44.9515 0 47.003 0 49.5349V53.2015C0 53.7075 0.411583 54.1182 0.916667 54.1182H52.25C52.7551 54.1182 53.1667 53.7075 53.1667 53.2015V49.5349C53.1667 47.003 51.1152 44.9515 48.5833 44.9515Z" fill="#96A1C3"/>
<path fill-rule="evenodd" clip-rule="evenodd" d="M42.3314 13.2553C42.16 13.4661 41.9015 13.5917 41.6255 13.5917C41.4147 13.5954 41.2066 13.5202 41.0499 13.3809L40.333 12.797C40.0003 12.4606 39.9755 11.9307 40.2725 11.5686C40.5695 11.2038 41.0957 11.125 41.4899 11.3826L42.1664 11.9518C42.3635 12.1021 42.4927 12.324 42.5248 12.5678C42.5532 12.8116 42.4854 13.0619 42.3314 13.2553Z" fill="#033C59"/>
<path fill-rule="evenodd" clip-rule="evenodd" d="M26.0139 8.28483H28.4165C28.9216 8.28483 29.3332 7.87325 29.3332 7.36816C29.3332 6.86308 28.9216 6.4515 28.4165 6.4515H27.4999V5.53483C27.4999 5.02975 27.0883 4.61816 26.5832 4.61816C26.0781 4.61816 25.6665 5.02975 25.6665 5.53483V6.4515C24.4024 6.54775 23.4537 7.65141 23.5499 8.91825C23.6471 10.1823 24.7499 11.1311 26.0139 11.0348H26.9306C27.1845 11.0348 27.3889 11.2392 27.3889 11.4932C27.3889 11.7471 27.1845 11.9515 26.9306 11.9515H24.7499C24.2448 11.9515 23.8332 12.3631 23.8332 12.8682C23.8332 13.3732 24.2448 13.7848 24.7499 13.7848H25.6665V14.7015C25.6665 15.2066 26.0781 15.6182 26.5832 15.6182C27.0883 15.6182 27.4999 15.2066 27.4999 14.7015V13.7032C28.6283 13.4301 29.3726 12.353 29.2296 11.1998C29.0829 10.0467 28.0948 9.18316 26.9306 9.2015H26.0139C25.7628 9.2015 25.5556 8.99708 25.5556 8.74316C25.5556 8.48925 25.7628 8.28483 26.0139 8.28483Z" fill="#0074FF"/>
<mask id="mask0_0_989" style="mask-type:luminance" maskUnits="userSpaceOnUse" x="0" y="0" width="54" height="55">
<path fill-rule="evenodd" clip-rule="evenodd" d="M0 0.916992H53.1667V54.1183H0V0.916992Z" fill="white"/>
</mask>
<g mask="url(#mask0_0_989)">
<path fill-rule="evenodd" clip-rule="evenodd" d="M51.3333 52.285H1.83333V49.535C1.83333 48.0179 3.06533 46.785 4.58333 46.785H48.5833C50.1013 46.785 51.3333 48.0179 51.3333 49.535V52.285ZM6.41667 44.035C6.41667 43.5299 6.82825 43.1183 7.33333 43.1183H12.8333C13.3384 43.1183 13.75 43.5299 13.75 44.035V44.9517H6.41667V44.035ZM3.66667 23.8683C3.16158 23.8683 2.75 23.4567 2.75 22.9517V20.2017C2.75 19.6966 3.16158 19.285 3.66667 19.285H49.5C50.0051 19.285 50.4167 19.6966 50.4167 20.2017V22.9517C50.4167 23.4567 50.0051 23.8683 49.5 23.8683H3.66667ZM41.25 41.285H44.9167V29.3683H41.25V41.285ZM39.4167 44.035C39.4167 43.5299 39.8283 43.1183 40.3333 43.1183H45.8333C46.3384 43.1183 46.75 43.5299 46.75 44.035V44.9517H39.4167V44.035ZM29.3333 27.535H23.8333C23.3282 27.535 22.9167 27.1243 22.9167 26.6183V25.7017H30.25V26.6183C30.25 27.1243 29.8384 27.535 29.3333 27.535ZM24.75 41.285H28.4167V29.3683H24.75V41.285ZM22.9167 44.035C22.9167 43.5299 23.3282 43.1183 23.8333 43.1183H29.3333C29.8384 43.1183 30.25 43.5299 30.25 44.035V44.9517H22.9167V44.035ZM8.25 41.285H11.9167V29.3683H8.25V41.285ZM7.33333 27.535C6.82825 27.535 6.41667 27.1243 6.41667 26.6183V25.7017H13.75V26.6183C13.75 27.1243 13.3384 27.535 12.8333 27.535H7.33333ZM13.75 41.4509V29.2033C14.8454 28.8165 15.5797 27.7825 15.5833 26.6183V25.7017H21.0833V26.6183C21.087 27.7825 21.8213 28.8165 22.9167 29.2033V41.4509C21.8213 41.8377 21.087 42.8708 21.0833 44.035V44.9517H15.5833V44.035C15.5797 42.8708 14.8454 41.8377 13.75 41.4509ZM30.25 41.4509V29.2033C31.3454 28.8165 32.0797 27.7825 32.0833 26.6183V25.7017H37.5833V26.6183C37.587 27.7825 38.3213 28.8165 39.4167 29.2033V41.4509C38.3213 41.8377 37.587 42.8708 37.5833 44.035V44.9517H32.0833V44.035C32.0797 42.8708 31.3454 41.8377 30.25 41.4509ZM46.75 26.6183C46.75 27.1243 46.3384 27.535 45.8333 27.535H40.3333C39.8283 27.535 39.4167 27.1243 39.4167 26.6183V25.7017H46.75V26.6183ZM48.5833 44.9517V44.035C48.5797 42.8708 47.8454 41.8377 46.75 41.4509V29.2033C47.8454 28.8165 48.5797 27.7825 48.5833 26.6183V25.7017H49.5C51.018 25.7017 52.25 24.4697 52.25 22.9517V20.2017C52.25 18.6837 51.018 17.4517 49.5 17.4517H48.9124L45.0349 14.2901C44.7874 14.0426 44.4226 13.9573 44.0935 14.0682C43.7598 14.1828 43.5233 14.4725 43.4775 14.8199C43.4344 15.1673 43.5884 15.5074 43.8817 15.7008L46.0158 17.4517H7.15092L23.9048 3.70167C25.2652 2.642 27.1242 2.48067 28.6458 3.29008C28.8603 3.40833 29.0684 3.54767 29.2618 3.70167L37.5118 10.4474C37.9023 10.7096 38.4285 10.6271 38.7255 10.2659C39.0225 9.90017 38.9977 9.37033 38.665 9.03667L30.415 2.29092C30.3252 2.21575 30.2289 2.14425 30.1318 2.07917C29.81 1.83625 29.4626 1.62817 29.0932 1.46408C26.9949 0.504333 24.5355 0.822416 22.7517 2.29092L13.0084 10.2934L4.25425 17.4517H3.66667C2.14867 17.4517 0.916667 18.6837 0.916667 20.2017V22.9517C0.916667 24.4697 2.14867 25.7017 3.66667 25.7017H4.58333V26.6183C4.587 27.7825 5.32125 28.8165 6.41667 29.2033V41.4509C5.32125 41.8377 4.587 42.8708 4.58333 44.035V44.9517C2.0515 44.9517 0 47.0032 0 49.535V53.2017C0 53.7077 0.411583 54.1183 0.916667 54.1183H52.25C52.7551 54.1183 53.1667 53.7077 53.1667 53.2017V49.535C53.1667 47.0032 51.1152 44.9517 48.5833 44.9517Z" fill="#033C59"/>
</g>
</svg>
