<svg width="23" height="23" viewBox="0 0 23 23" fill="none" xmlns="http://www.w3.org/2000/svg">
<g id="ICON">
<path id="Fill 1" fill-rule="evenodd" clip-rule="evenodd" d="M9.21865 22.7707C8.81974 22.6924 8.56458 22.305 8.64293 21.9089C8.72127 21.51 9.10868 21.2549 9.50399 21.3332C14.651 22.338 19.7074 19.2222 21.1255 14.1737C22.5407 9.12236 19.8396 3.83308 14.9176 2.0168C9.99921 0.202676 4.51011 2.46889 2.30643 7.22774C0.0991445 11.9866 1.92118 17.641 6.48668 20.2184C6.83168 20.4182 6.95027 20.8588 6.75333 21.2038C6.55424 21.5496 6.11293 21.6674 5.76793 21.4705C0.57352 18.4805 -1.45695 12.0038 1.10468 6.58446C3.66774 1.16868 9.95968 -1.37498 15.5666 0.744613C21.1729 2.86133 24.2139 8.93261 22.5515 14.6905C20.8897 20.4491 15.0836 23.9638 9.21002 22.7707H9.21865Z" fill="#202244"/>
<path id="Fill 4" fill-rule="evenodd" clip-rule="evenodd" d="M11.5176 4.31348C7.54792 4.31348 4.33008 7.53132 4.33008 11.501C4.33008 15.4706 7.54792 18.6885 11.5176 18.6885C15.4872 18.6885 18.7051 15.4706 18.7051 11.501C18.7051 7.53132 15.4872 4.31348 11.5176 4.31348ZM11.5176 20.126C6.75298 20.126 2.89258 16.2656 2.89258 11.501C2.89258 6.73638 6.75298 2.87598 11.5176 2.87598C16.2822 2.87598 20.1426 6.73638 20.1426 11.501C20.1426 16.2656 16.2822 20.126 11.5176 20.126Z" fill="#202244"/>
<path id="Fill 6" fill-rule="evenodd" clip-rule="evenodd" d="M11.5177 17.251C11.1216 17.251 10.7989 16.9283 10.7989 16.5323C10.7989 16.1363 11.1216 15.8135 11.5177 15.8135C11.9137 15.8135 12.2364 16.1363 12.2364 16.5323C12.2364 16.9283 11.9137 17.251 11.5177 17.251ZM11.5177 14.376C11.1216 14.376 10.7989 14.0533 10.7989 13.6573C10.7989 12.6438 11.4084 11.7282 12.3428 11.3357C13.4209 10.9088 13.9686 9.70416 13.5812 8.61166C13.1938 7.517 12.0114 6.92763 10.9053 7.27263C9.79913 7.62122 9.1652 8.78057 9.46779 9.89822C9.56913 10.2828 9.33626 10.6759 8.95173 10.7737C8.5672 10.875 8.17404 10.6421 8.07557 10.2576C7.59545 8.39891 8.66207 6.49207 10.4956 5.92785C12.3291 5.36075 14.2834 6.33466 14.9346 8.14016C15.5858 9.94566 14.7046 11.9445 12.9329 12.6805C12.5225 12.8322 12.245 13.2196 12.2364 13.6573C12.2364 14.0533 11.9137 14.376 11.5177 14.376Z" fill="#202244"/>
</g>
</svg>
