<svg width="64" height="59" viewBox="0 0 64 59" fill="none" xmlns="http://www.w3.org/2000/svg">
<rect width="64" height="59" fill="#353535"/>
<g id="17_CATEGORY" clip-path="url(#clip0_0_1)">
<rect width="428" height="926" transform="translate(-281 -696)" fill="white"/>
<g id="MAIN BACKGROUND">
<rect id="MAIN BACKGROUND_2" x="-281" y="-696" width="428" height="926" fill="#F5F9FF"/>
</g>
<g id="08">
<g id="ICON">
<path id="Fill 1" fill-rule="evenodd" clip-rule="evenodd" d="M42.3281 38.6709C36.6411 44.3589 27.3711 44.3589 21.6721 38.6709C15.9801 32.9679 15.9801 23.6989 21.6721 18.0109C24.5121 15.1599 28.2501 13.7299 32.0001 13.7299C35.8751 13.7259 39.5901 15.2609 42.3281 17.9999C48.0311 23.6989 48.0311 32.9679 42.3281 38.6709ZM46.4881 39.2699C49.1131 35.8039 50.4021 31.5069 50.1211 27.1709C50.0781 26.5389 50.0121 25.9209 49.8981 25.2999C49.3011 21.6989 47.6211 18.2609 44.8401 15.4919C44.6091 15.2609 44.3711 15.0309 44.1291 14.8199C43.6211 14.3709 43.1091 13.9609 42.5781 13.5699C36.2811 9.04993 27.7111 9.04993 21.4101 13.5699C20.8791 13.9489 20.3591 14.3779 19.8591 14.8199C19.6291 15.0389 19.3911 15.2499 19.1601 15.4799C16.4881 18.1399 14.7151 21.5699 14.0901 25.2889C13.9881 25.9099 13.9101 26.5389 13.8711 27.1599C13.5511 32.1989 15.3091 37.3389 19.1481 41.1709C22.6911 44.7309 27.3521 46.4999 32.0001 46.4999C35.8591 46.4999 39.7111 45.2699 42.9411 42.8319L55.0581 57.0589C55.7891 57.9139 56.8401 58.4209 57.9611 58.4639C59.0781 58.5069 60.1681 58.0819 60.9611 57.2889C62.6091 55.6409 62.5001 52.9209 60.7191 51.4019L46.4881 39.2699Z" fill="#292F64"/>
<g id="Group 5">
<mask id="mask0_0_1" style="mask-type:luminance" maskUnits="userSpaceOnUse" x="0" y="1" width="64" height="37">
<path id="Clip 4" fill-rule="evenodd" clip-rule="evenodd" d="M0 1H63.9998V37.4918H0V1Z" fill="white"/>
</mask>
<g mask="url(#mask0_0_1)">
<path id="Fill 3" fill-rule="evenodd" clip-rule="evenodd" d="M52.2188 11.4409C55.1018 11.4409 57.4418 9.1009 57.4418 6.2179C57.4418 3.3389 55.1018 0.999898 52.2188 0.999898C49.3398 0.991898 46.9998 3.3389 46.9998 6.2179C46.9998 9.1009 49.3398 11.4409 52.2188 11.4409ZM55.8908 12.1789L55.7108 12.1599L52.8088 16.3199C52.6798 16.5109 52.4608 16.6249 52.2308 16.6209C51.9998 16.6209 51.7818 16.4999 51.6408 16.3079L48.7308 12.1519L48.5508 12.1709C47.3398 12.3079 46.1798 12.6789 45.1018 13.2889L44.7308 13.4999L45.0508 13.7889C45.3088 14.0189 45.5588 14.2609 45.8088 14.5109C48.6988 17.4019 50.5778 21.0389 51.2388 25.0579L51.2818 25.3199H59.5708L59.8088 21.0889C59.8358 20.7029 60.1638 20.4099 60.5508 20.4209H60.5588C60.9488 20.4409 61.2498 20.7809 61.2308 21.1709L61.0118 25.3199H63.9998V21.2609C63.9998 16.6089 60.5118 12.6989 55.8908 12.1789ZM11.7698 11.4409C14.6478 11.4409 16.9878 9.1009 16.9878 6.2179C16.9878 3.3389 14.6478 0.999898 11.7698 0.999898C8.89076 0.999898 6.55176 3.3389 6.55176 6.2179C6.53876 9.1009 8.89076 11.4409 11.7698 11.4409ZM18.9488 13.7999L19.2618 13.5189L18.8978 13.3079C17.8398 12.7029 16.6638 12.3199 15.4488 12.1789L15.2698 12.1599L12.3788 16.3079C12.2498 16.4799 12.0308 16.5889 11.7888 16.5889C11.5388 16.5889 11.3278 16.4919 11.2108 16.3079L8.30176 12.1519L8.10176 12.1789C3.47976 12.6789 -0.000244141 16.5889 -0.000244141 21.2689V25.3319H2.96876L2.74976 21.1789C2.72976 20.7889 3.03076 20.4489 3.49976 20.4289C3.85176 20.4289 4.15976 20.7419 4.17976 21.1089L4.40976 25.3389H12.6988L12.7378 25.0819C13.4098 21.0699 15.2888 17.4289 18.1908 14.5309C18.4408 14.2689 18.6908 14.0389 18.9488 13.7999ZM31.9998 25.9919C34.4888 25.9919 36.5118 23.9609 36.5118 21.4799C36.5118 18.9999 34.4888 16.9679 31.9998 16.9679C29.5118 16.9679 27.4878 18.9999 27.4878 21.4799C27.4878 23.9609 29.5118 25.9919 31.9998 25.9919ZM35.1598 26.7419L34.9808 26.7179L32.5898 30.1279C32.4688 30.3089 32.2388 30.4099 31.9998 30.4099C31.7618 30.4099 31.5388 30.2999 31.4218 30.1279L29.0308 26.7179L28.8518 26.7419C25.1018 27.1909 22.2698 30.4099 22.2698 34.2099V37.4919H24.5198L24.3398 34.1409C24.3198 33.7499 24.6288 33.4019 25.1018 33.3709C25.4408 33.3709 25.7498 33.6789 25.7698 34.0589L25.9608 37.4919H38.0388L38.2308 34.0589C38.2578 33.6679 38.5898 33.3669 38.9808 33.3779H38.9888C39.3788 33.4019 39.6798 33.7419 39.6598 34.1409L39.4808 37.4919H41.7308V34.2099C41.7188 30.4209 38.8988 27.2109 35.1598 26.7419Z" fill="#292F64"/>
</g>
</g>
</g>
</g>
</g>
<defs>
<clipPath id="clip0_0_1">
<rect width="428" height="926" fill="white" transform="translate(-281 -696)"/>
</clipPath>
</defs>
</svg>
