<svg width="13" height="19" viewBox="0 0 13 19" fill="none" xmlns="http://www.w3.org/2000/svg">
<path id="Fill 1" fill-rule="evenodd" clip-rule="evenodd" d="M9.90603 15.5803L12.4831 8.49978C12.6017 8.17408 12.4335 7.81353 12.1078 7.69498C11.7821 7.57644 11.4216 7.74456 11.303 8.07026L8.72595 15.1507C8.05434 16.996 6.01069 17.949 4.16544 17.2773C2.32019 16.6057 1.36722 14.5621 2.03884 12.7168L5.33178 3.66956C5.76573 2.47728 7.09042 1.85957 8.2827 2.29352C9.47497 2.72747 10.0927 4.05217 9.65873 5.24444L6.58055 13.7017C6.38312 14.2441 5.78167 14.5246 5.23922 14.3271C4.69678 14.1297 4.41632 13.5283 4.61375 12.9858L7.40559 5.3153C7.52414 4.9896 7.35601 4.62905 7.03031 4.51051C6.70461 4.39196 6.34406 4.56009 6.22551 4.88579L3.43367 12.5563C2.99972 13.7486 3.61744 15.0733 4.80971 15.5072C6.00198 15.9412 7.32668 15.3235 7.76063 14.1312L10.8388 5.67395C11.5104 3.8287 10.5575 1.78506 8.71221 1.11344C6.86696 0.441824 4.82331 1.39479 4.1517 3.24004L0.858759 12.2873C-0.0489469 14.7812 1.24203 17.5497 3.73593 18.4574C6.22983 19.3651 8.99833 18.0742 9.90603 15.5803Z" fill="#202244"/>
</svg>
