<svg width="18" height="21" viewBox="0 0 18 21" fill="none" xmlns="http://www.w3.org/2000/svg">
<path id="Fill 1" fill-rule="evenodd" clip-rule="evenodd" d="M0.988274 7.944C0.953274 7.944 0.918274 7.947 0.883274 7.951C0.371274 8.01 -0.0117256 8.447 0.000274357 8.959V11.959C0.000274357 15.815 3.85127 19.004 7.70627 19.004H5.70627H5.60827C5.06527 19.043 4.65127 19.508 4.67927 20.051C4.70627 20.598 5.15927 21.02 5.70627 21.004H11.7063C12.0703 21.016 12.4093 20.824 12.5933 20.512C12.7773 20.199 12.7773 19.813 12.5933 19.5C12.4093 19.188 12.0703 18.996 11.7063 19.004H9.70627C13.5623 19.004 17.7063 15.856 17.7063 12V9C17.7063 8.449 17.2573 8 16.7023 8C16.1523 8 15.7023 8.449 15.7023 9V12C15.7023 14.774 12.4803 17.004 9.70627 17.004H7.70627C4.93327 17.004 2.14527 15.105 2.00027 11.959V8.959C2.00427 8.69 1.89827 8.432 1.70727 8.237C1.51627 8.045 1.25827 7.94 0.988274 7.944ZM8.71027 2.004C10.3783 2.004 11.7063 3.336 11.7063 5.008V10.004C11.7063 11.672 10.3783 13 8.71027 13C7.04227 13 5.70627 11.672 5.70627 10.004V5.008C5.70627 3.336 7.04227 2.004 8.71027 2.004ZM8.71027 0C5.96027 0 3.70627 2.258 3.70627 5.008V10.004C3.70627 12.754 5.96027 15 8.71027 15C11.4603 15 13.7063 12.754 13.7063 10.004V5.008C13.7063 2.258 11.4603 0 8.71027 0Z" fill="white"/>
</svg>
