<svg width="360" height="181" viewBox="0 0 360 181" fill="none" xmlns="http://www.w3.org/2000/svg">
<rect y="1" width="360" height="180" rx="22" fill="#0961F5"/>
<circle cx="143" cy="161" r="4" fill="#1A6EFC"/>
<circle cx="159" cy="161" r="4" fill="#1A6EFC"/>
<rect x="171" y="157" width="18" height="8" rx="4" fill="#FAC840"/>
<circle cx="201" cy="161" r="4" fill="#1A6EFC"/>
<circle cx="217" cy="161" r="4" fill="#1A6EFC"/>
<path fill-rule="evenodd" clip-rule="evenodd" d="M179 181C179 181 232 168.5 241 164.5C250 160.5 245 140 255 140C265 140 290.5 160.5 306 160.5C321.5 160.5 329 114 335.5 114C342 114 346 140 352 140C358 140 360 104.5 360 104.5V161C360 172.046 351.046 181 340 181H179Z" fill="#1A6EFC"/>
<path fill-rule="evenodd" clip-rule="evenodd" d="M0 65.5V21C0 9.95431 8.95431 1 20 1H156C156 1 130.5 40 117.5 33.5C104.5 27 100.914 14.0479 83 19.5C65.0858 24.9521 71.0279 47.6068 60 51C48.9721 54.3932 35 32.5 28 37C21 41.5 19.3524 69.5877 16 73C12.6476 76.4123 0 65.5 0 65.5Z" fill="#1A6EFC"/>
<path d="M177.57 1.869L160.43 29.131" stroke="#1A6EFC" stroke-width="2" stroke-linecap="round" stroke-linejoin="round"/>
<path d="M175.158 25.2589L161.682 45.1186" stroke="#1A6EFC" stroke-width="2" stroke-linecap="round" stroke-linejoin="round"/>
<path d="M201.626 77.687C201.508 77.4498 201.265 77.3 201 77.3C200.735 77.3 200.492 77.4498 200.374 77.687L196.374 85.687C196.265 85.9039 196.277 86.1616 196.405 86.368C196.532 86.5744 196.757 86.7 197 86.7H205C205.243 86.7 205.468 86.5744 205.595 86.368C205.723 86.1616 205.735 85.9039 205.626 85.687L201.626 77.687Z" stroke="#1A6EFC" stroke-width="1.4" stroke-linejoin="round"/>
<ellipse cx="225" cy="37" rx="20" ry="5" stroke="#1A6EFC" stroke-width="2"/>
<path d="M24.975 46V44.275L28.53 40.495C28.9 40.085 29.175 39.705 29.355 39.355C29.545 38.995 29.64 38.64 29.64 38.29C29.64 37.87 29.515 37.555 29.265 37.345C29.015 37.135 28.655 37.03 28.185 37.03C27.735 37.03 27.27 37.12 26.79 37.3C26.32 37.47 25.845 37.725 25.365 38.065L24.615 36.385C25.045 36.015 25.595 35.725 26.265 35.515C26.935 35.295 27.615 35.185 28.305 35.185C29.035 35.185 29.675 35.305 30.225 35.545C30.775 35.785 31.195 36.13 31.485 36.58C31.785 37.02 31.935 37.54 31.935 38.14C31.935 38.77 31.805 39.345 31.545 39.865C31.295 40.385 30.87 40.965 30.27 41.605L27.21 44.815L26.91 44.125H32.31V46H24.975ZM37.4188 46.12C36.7388 46.12 36.0638 46.015 35.3938 45.805C34.7338 45.585 34.1988 45.29 33.7888 44.92L34.5388 43.24C35.0088 43.58 35.4888 43.84 35.9788 44.02C36.4688 44.19 36.9588 44.275 37.4488 44.275C38.0688 44.275 38.5338 44.135 38.8438 43.855C39.1638 43.565 39.3238 43.15 39.3238 42.61C39.3238 42.25 39.2488 41.945 39.0988 41.695C38.9588 41.435 38.7488 41.24 38.4688 41.11C38.1988 40.97 37.8738 40.9 37.4938 40.9C37.1538 40.9 36.8038 40.965 36.4438 41.095C36.0938 41.215 35.7788 41.395 35.4988 41.635H34.1638V35.32H41.0188V37.12H36.4438V40.18L35.7388 40.06C36.0488 39.74 36.3988 39.5 36.7888 39.34C37.1888 39.17 37.6438 39.085 38.1538 39.085C38.8238 39.085 39.4088 39.23 39.9088 39.52C40.4188 39.81 40.8188 40.21 41.1088 40.72C41.3988 41.23 41.5438 41.83 41.5438 42.52C41.5438 43.24 41.3738 43.87 41.0338 44.41C40.6938 44.95 40.2138 45.37 39.5938 45.67C38.9838 45.97 38.2588 46.12 37.4188 46.12ZM44.8529 41.785C44.0529 41.785 43.4179 41.51 42.9479 40.96C42.4879 40.41 42.2579 39.59 42.2579 38.5C42.2579 37.43 42.4879 36.625 42.9479 36.085C43.4179 35.535 44.0529 35.26 44.8529 35.26C45.6529 35.26 46.2829 35.535 46.7429 36.085C47.2029 36.635 47.4329 37.445 47.4329 38.515C47.4329 39.595 47.2029 40.41 46.7429 40.96C46.2829 41.51 45.6529 41.785 44.8529 41.785ZM44.8529 40.36C45.0929 40.36 45.2679 40.22 45.3779 39.94C45.4979 39.66 45.5579 39.185 45.5579 38.515C45.5579 37.855 45.4979 37.385 45.3779 37.105C45.2579 36.825 45.0829 36.685 44.8529 36.685C44.6129 36.685 44.4329 36.825 44.3129 37.105C44.1929 37.385 44.1329 37.855 44.1329 38.515C44.1329 39.185 44.1929 39.66 44.3129 39.94C44.4329 40.22 44.6129 40.36 44.8529 40.36ZM44.5679 46L50.7629 35.32H52.9529L46.7579 46H44.5679ZM52.6529 46.06C51.8529 46.06 51.2179 45.785 50.7479 45.235C50.2879 44.685 50.0579 43.865 50.0579 42.775C50.0579 41.705 50.2879 40.9 50.7479 40.36C51.2179 39.81 51.8529 39.535 52.6529 39.535C53.4529 39.535 54.0829 39.81 54.5429 40.36C55.0029 40.91 55.2329 41.72 55.2329 42.79C55.2329 43.87 55.0029 44.685 54.5429 45.235C54.0829 45.785 53.4529 46.06 52.6529 46.06ZM52.6529 44.635C52.8929 44.635 53.0679 44.495 53.1779 44.215C53.2979 43.935 53.3579 43.46 53.3579 42.79C53.3579 42.13 53.2979 41.66 53.1779 41.38C53.0579 41.1 52.8829 40.96 52.6529 40.96C52.4129 40.96 52.2329 41.1 52.1129 41.38C51.9929 41.66 51.9329 42.13 51.9329 42.79C51.9329 43.46 51.9929 43.935 52.1129 44.215C52.2329 44.495 52.4129 44.635 52.6529 44.635ZM65.6975 46.135C64.6275 46.135 63.7025 45.91 62.9225 45.46C62.1425 45.01 61.5375 44.375 61.1075 43.555C60.6875 42.735 60.4775 41.765 60.4775 40.645C60.4775 39.535 60.6875 38.57 61.1075 37.75C61.5375 36.93 62.1425 36.3 62.9225 35.86C63.7025 35.41 64.6275 35.185 65.6975 35.185C66.7675 35.185 67.6875 35.41 68.4575 35.86C69.2375 36.3 69.8375 36.93 70.2575 37.75C70.6775 38.57 70.8875 39.535 70.8875 40.645C70.8875 41.765 70.6775 42.735 70.2575 43.555C69.8375 44.375 69.2375 45.01 68.4575 45.46C67.6875 45.91 66.7675 46.135 65.6975 46.135ZM65.6975 44.32C66.5775 44.32 67.2725 44.01 67.7825 43.39C68.3025 42.76 68.5625 41.845 68.5625 40.645C68.5625 39.445 68.3025 38.54 67.7825 37.93C67.2725 37.31 66.5775 37 65.6975 37C64.8075 37 64.1075 37.31 63.5975 37.93C63.0875 38.54 62.8325 39.445 62.8325 40.645C62.8325 41.855 63.0875 42.77 63.5975 43.39C64.1075 44.01 64.8075 44.32 65.6975 44.32ZM72.7164 46V35.32H79.9164V37.18H75.0264V39.655H79.6164V41.5H75.0264V46H72.7164ZM81.3882 46V35.32H88.5882V37.18H83.6982V39.655H88.2882V41.5H83.6982V46H81.3882ZM91.2901 40.96L90.0451 40.045L91.3801 38.44L89.3401 37.9L89.8351 36.415L91.7701 37.18L91.6501 35.095H93.2101L93.0751 37.165L95.0401 36.415L95.5201 37.9L93.4801 38.425L94.8151 40.045L93.5551 40.96L92.4301 39.205L91.2901 40.96Z" fill="white"/>
<path d="M29.17 72V59.13H24.264V56.336H37.552V59.13H32.646V72H29.17ZM42.6973 72.176C41.4946 72.176 40.4533 71.9413 39.5733 71.472C38.6933 71.0027 38.0113 70.3353 37.5273 69.47C37.0579 68.59 36.8233 67.556 36.8233 66.368C36.8233 65.18 37.0579 64.1533 37.5273 63.288C38.0113 62.4227 38.6933 61.7553 39.5733 61.286C40.4533 60.802 41.4946 60.56 42.6973 60.56C43.8706 60.56 44.8973 60.802 45.7773 61.286C46.6573 61.7553 47.3319 62.4227 47.8013 63.288C48.2853 64.1533 48.5273 65.18 48.5273 66.368C48.5273 67.556 48.2853 68.59 47.8013 69.47C47.3319 70.3353 46.6573 71.0027 45.7773 71.472C44.8973 71.9413 43.8706 72.176 42.6973 72.176ZM42.6973 69.646C43.5039 69.646 44.1273 69.382 44.5673 68.854C45.0073 68.3113 45.2273 67.4827 45.2273 66.368C45.2273 65.268 45.0073 64.454 44.5673 63.926C44.1273 63.3833 43.5039 63.112 42.6973 63.112C41.8759 63.112 41.2379 63.3833 40.7833 63.926C40.3433 64.454 40.1233 65.268 40.1233 66.368C40.1233 67.4827 40.3433 68.3113 40.7833 68.854C41.2233 69.382 41.8613 69.646 42.6973 69.646ZM61.8266 72H58.5486V69.272L58.8126 69.756C58.5633 70.5187 58.0939 71.1127 57.4046 71.538C56.7153 71.9633 55.9233 72.176 55.0286 72.176C54.0606 72.176 53.2026 71.934 52.4546 71.45C51.7213 70.9513 51.1419 70.2693 50.7166 69.404C50.3059 68.524 50.1006 67.4973 50.1006 66.324C50.1006 65.1653 50.3059 64.1533 50.7166 63.288C51.1273 62.4227 51.7066 61.7553 52.4546 61.286C53.2026 60.802 54.0606 60.56 55.0286 60.56C55.9233 60.56 56.7153 60.7873 57.4046 61.242C58.0939 61.682 58.5633 62.2687 58.8126 63.002L58.5046 63.398V55.808H61.8266V72ZM55.9966 69.646C56.8033 69.646 57.4266 69.3673 57.8666 68.81C58.3213 68.2527 58.5486 67.4387 58.5486 66.368C58.5486 65.3413 58.3213 64.542 57.8666 63.97C57.4266 63.398 56.8033 63.112 55.9966 63.112C55.1606 63.112 54.5153 63.3907 54.0606 63.948C53.6206 64.5053 53.4006 65.2973 53.4006 66.324C53.4006 67.3947 53.6279 68.216 54.0826 68.788C54.5519 69.36 55.1899 69.646 55.9966 69.646ZM68.886 72.176C67.918 72.176 67.06 71.9413 66.312 71.472C65.564 71.0027 64.9847 70.3353 64.574 69.47C64.1633 68.6047 63.958 67.5927 63.958 66.434C63.958 65.2753 64.1633 64.256 64.574 63.376C64.9993 62.4813 65.5787 61.792 66.312 61.308C67.06 60.8093 67.918 60.56 68.886 60.56C69.7807 60.56 70.5727 60.78 71.262 61.22C71.9513 61.66 72.4207 62.254 72.67 63.002L72.406 63.178V60.846H75.684V72H72.406V69.712L72.67 69.756C72.4207 70.5187 71.9513 71.1127 71.262 71.538C70.5727 71.9633 69.7807 72.176 68.886 72.176ZM69.854 69.646C70.6607 69.646 71.284 69.3673 71.724 68.81C72.1787 68.2527 72.406 67.446 72.406 66.39C72.406 65.334 72.1787 64.5273 71.724 63.97C71.284 63.398 70.6607 63.112 69.854 63.112C69.0473 63.112 68.4093 63.4053 67.94 63.992C67.4853 64.5787 67.258 65.3927 67.258 66.434C67.258 67.4753 67.478 68.2747 67.918 68.832C68.3727 69.3747 69.018 69.646 69.854 69.646ZM78.2994 77.016L77.5294 74.464C78.2188 74.332 78.7834 74.1633 79.2234 73.958C79.6781 73.7673 80.0521 73.5253 80.3454 73.232C80.6388 72.9387 80.8808 72.5793 81.0714 72.154L81.9294 70.24L82.8094 68.942L86.0874 60.846H89.3654L84.2394 72.572C83.7848 73.5987 83.2641 74.4127 82.6774 75.014C82.0908 75.6153 81.4308 76.07 80.6974 76.378C79.9641 76.686 79.1648 76.8987 78.2994 77.016ZM82.0174 72.836L76.8034 60.846H80.2574L83.4694 68.942L82.0174 72.836ZM91.996 63.068L90.72 62.034C91.2333 61.506 91.6 61.0147 91.82 60.56C92.04 60.0907 92.15 59.5993 92.15 59.086L92.942 59.878H90.412V56.336H94.02V58.602C94.02 59.4527 93.866 60.2227 93.558 60.912C93.2647 61.6013 92.744 62.32 91.996 63.068ZM100.187 72.176C98.06 72.176 96.3807 71.7213 95.1487 70.812L96.0507 68.502C96.6374 68.9273 97.29 69.2573 98.0087 69.492C98.742 69.712 99.4754 69.822 100.209 69.822C100.781 69.822 101.221 69.734 101.529 69.558C101.837 69.3673 101.991 69.1107 101.991 68.788C101.991 68.5093 101.881 68.2967 101.661 68.15C101.441 67.9887 101.052 67.842 100.495 67.71L98.6687 67.27C97.5834 67.05 96.784 66.6833 96.2707 66.17C95.772 65.6567 95.5227 64.9747 95.5227 64.124C95.5227 63.4347 95.7207 62.826 96.1167 62.298C96.5274 61.7553 97.092 61.33 97.8107 61.022C98.5294 60.714 99.3654 60.56 100.319 60.56C101.125 60.56 101.903 60.6847 102.651 60.934C103.399 61.1687 104.081 61.506 104.697 61.946L103.773 64.168C103.201 63.772 102.614 63.4713 102.013 63.266C101.426 63.0607 100.854 62.958 100.297 62.958C99.754 62.958 99.3287 63.0533 99.0207 63.244C98.7127 63.4347 98.5587 63.6987 98.5587 64.036C98.5587 64.2853 98.6467 64.4833 98.8227 64.63C99.0134 64.7767 99.3434 64.9087 99.8127 65.026L101.683 65.444C102.827 65.708 103.655 66.104 104.169 66.632C104.682 67.16 104.939 67.864 104.939 68.744C104.939 69.8 104.513 70.636 103.663 71.252C102.827 71.868 101.668 72.176 100.187 72.176ZM118.868 72.198C118.076 72.198 117.299 72.132 116.536 72C115.788 71.8533 115.084 71.648 114.424 71.384C113.764 71.1053 113.192 70.7753 112.708 70.394L113.83 67.93C114.607 68.4727 115.414 68.876 116.25 69.14C117.086 69.404 117.966 69.536 118.89 69.536C119.887 69.536 120.65 69.3747 121.178 69.052C121.721 68.7293 121.992 68.282 121.992 67.71C121.992 67.3727 121.882 67.0867 121.662 66.852C121.442 66.6173 121.09 66.412 120.606 66.236C120.122 66.06 119.477 65.884 118.67 65.708C117.658 65.5027 116.793 65.2607 116.074 64.982C115.355 64.7033 114.769 64.3807 114.314 64.014C113.874 63.6473 113.551 63.222 113.346 62.738C113.141 62.2393 113.038 61.6673 113.038 61.022C113.038 60.098 113.295 59.2693 113.808 58.536C114.336 57.788 115.062 57.2013 115.986 56.776C116.925 56.3507 118.017 56.138 119.264 56.138C120.012 56.138 120.738 56.2113 121.442 56.358C122.161 56.5047 122.821 56.71 123.422 56.974C124.023 57.238 124.529 57.5607 124.94 57.942L123.84 60.406C123.136 59.8633 122.403 59.46 121.64 59.196C120.877 58.932 120.1 58.8 119.308 58.8C118.413 58.8 117.702 58.9833 117.174 59.35C116.646 59.702 116.382 60.186 116.382 60.802C116.382 61.1393 116.485 61.4253 116.69 61.66C116.895 61.8947 117.233 62.1073 117.702 62.298C118.186 62.474 118.846 62.6573 119.682 62.848C120.665 63.0533 121.515 63.2953 122.234 63.574C122.953 63.8527 123.539 64.1753 123.994 64.542C124.463 64.894 124.808 65.312 125.028 65.796C125.248 66.2653 125.358 66.808 125.358 67.424C125.358 68.4067 125.101 69.2573 124.588 69.976C124.075 70.68 123.334 71.23 122.366 71.626C121.398 72.0073 120.232 72.198 118.868 72.198ZM127.629 76.752V64.036C127.629 63.508 127.614 62.98 127.585 62.452C127.57 61.9093 127.526 61.374 127.453 60.846H130.577L130.819 63.002H130.687C130.922 62.254 131.376 61.66 132.051 61.22C132.74 60.78 133.54 60.56 134.449 60.56C135.417 60.56 136.268 60.8093 137.001 61.308C137.749 61.792 138.336 62.4813 138.761 63.376C139.186 64.256 139.399 65.2753 139.399 66.434C139.399 67.5927 139.186 68.6047 138.761 69.47C138.336 70.3353 137.749 71.0027 137.001 71.472C136.268 71.9413 135.417 72.176 134.449 72.176C133.54 72.176 132.74 71.9633 132.051 71.538C131.376 71.1127 130.922 70.5187 130.687 69.756L130.951 69.338V76.752H127.629ZM133.503 69.646C134.324 69.646 134.955 69.3747 135.395 68.832C135.835 68.2747 136.055 67.4753 136.055 66.434C136.055 65.3927 135.828 64.5787 135.373 63.992C134.933 63.4053 134.31 63.112 133.503 63.112C132.667 63.112 132.029 63.398 131.589 63.97C131.149 64.5273 130.929 65.334 130.929 66.39C130.929 67.446 131.149 68.2527 131.589 68.81C132.029 69.3673 132.667 69.646 133.503 69.646ZM151.342 70.812C150.799 71.2373 150.139 71.5747 149.362 71.824C148.584 72.0587 147.8 72.176 147.008 72.176C145.761 72.176 144.683 71.9413 143.774 71.472C142.879 71.0027 142.19 70.3353 141.706 69.47C141.222 68.6047 140.98 67.578 140.98 66.39C140.98 65.246 141.214 64.234 141.684 63.354C142.153 62.474 142.791 61.792 143.598 61.308C144.419 60.8093 145.372 60.56 146.458 60.56C147.499 60.56 148.401 60.7947 149.164 61.264C149.926 61.7187 150.513 62.3713 150.924 63.222C151.334 64.058 151.54 65.0553 151.54 66.214V66.698H143.906L143.95 65.048H149.56L148.702 65.73C148.716 64.7913 148.533 64.0873 148.152 63.618C147.785 63.134 147.25 62.892 146.546 62.892C145.783 62.892 145.189 63.1707 144.764 63.728C144.353 64.2707 144.148 65.07 144.148 66.126C144.148 67.3727 144.39 68.2747 144.874 68.832C145.372 69.3893 146.128 69.668 147.14 69.668C147.726 69.668 148.306 69.5727 148.878 69.382C149.45 69.1913 149.978 68.92 150.462 68.568L151.342 70.812ZM158.905 72.176C157.703 72.176 156.661 71.9413 155.781 71.472C154.901 71.0027 154.227 70.3427 153.757 69.492C153.303 68.6267 153.075 67.6073 153.075 66.434C153.075 65.2607 153.325 64.234 153.823 63.354C154.322 62.474 155.019 61.792 155.913 61.308C156.808 60.8093 157.857 60.56 159.059 60.56C159.851 60.56 160.629 60.6847 161.391 60.934C162.154 61.1833 162.77 61.5207 163.239 61.946L162.359 64.256C161.919 63.904 161.435 63.6327 160.907 63.442C160.379 63.2367 159.866 63.134 159.367 63.134C158.473 63.134 157.769 63.4053 157.255 63.948C156.742 64.4907 156.485 65.2973 156.485 66.368C156.485 67.4533 156.735 68.2673 157.233 68.81C157.747 69.3527 158.458 69.624 159.367 69.624C159.866 69.624 160.379 69.5287 160.907 69.338C161.435 69.1473 161.919 68.8687 162.359 68.502L163.239 70.812C162.755 71.2373 162.125 71.5747 161.347 71.824C160.57 72.0587 159.756 72.176 158.905 72.176ZM164.819 72V60.846H168.141V72H164.819ZM164.687 55.61H168.273V58.734H164.687V55.61ZM175.234 72.176C174.266 72.176 173.408 71.9413 172.66 71.472C171.912 71.0027 171.332 70.3353 170.922 69.47C170.511 68.6047 170.306 67.5927 170.306 66.434C170.306 65.2753 170.511 64.256 170.922 63.376C171.347 62.4813 171.926 61.792 172.66 61.308C173.408 60.8093 174.266 60.56 175.234 60.56C176.128 60.56 176.92 60.78 177.61 61.22C178.299 61.66 178.768 62.254 179.018 63.002L178.754 63.178V60.846H182.032V72H178.754V69.712L179.018 69.756C178.768 70.5187 178.299 71.1127 177.61 71.538C176.92 71.9633 176.128 72.176 175.234 72.176ZM176.202 69.646C177.008 69.646 177.632 69.3673 178.072 68.81C178.526 68.2527 178.754 67.446 178.754 66.39C178.754 65.334 178.526 64.5273 178.072 63.97C177.632 63.398 177.008 63.112 176.202 63.112C175.395 63.112 174.757 63.4053 174.288 63.992C173.833 64.5787 173.606 65.3927 173.606 66.434C173.606 67.4753 173.826 68.2747 174.266 68.832C174.72 69.3747 175.366 69.646 176.202 69.646ZM184.713 72V55.808H188.035V72H184.713Z" fill="white"/>
<path d="M29.434 101.117C28.446 101.117 27.5923 100.926 26.873 100.545C26.1623 100.164 25.612 99.6177 25.222 98.907C24.8407 98.1963 24.65 97.347 24.65 96.359C24.65 95.3883 24.8407 94.5477 25.222 93.837C25.612 93.1263 26.158 92.5803 26.86 92.199C27.562 91.8177 28.3897 91.627 29.343 91.627C30.0017 91.627 30.6213 91.718 31.202 91.9C31.7827 92.082 32.2593 92.3377 32.632 92.667L31.982 94.123C31.54 93.811 31.1153 93.5857 30.708 93.447C30.3093 93.3083 29.8717 93.239 29.395 93.239C28.5023 93.239 27.8307 93.499 27.38 94.019C26.938 94.539 26.717 95.319 26.717 96.359C26.717 97.425 26.9467 98.2267 27.406 98.764C27.874 99.2927 28.5803 99.557 29.525 99.557C29.8543 99.557 30.1837 99.531 30.513 99.479C30.851 99.4183 31.176 99.3317 31.488 99.219L31.046 99.882V97.308H29.226V95.891H32.879V100.428C32.5757 100.575 32.2333 100.701 31.852 100.805C31.4793 100.909 31.085 100.987 30.669 101.039C30.2617 101.091 29.85 101.117 29.434 101.117ZM40.2775 100.298C39.9569 100.549 39.5669 100.749 39.1075 100.896C38.6482 101.035 38.1845 101.104 37.7165 101.104C36.9799 101.104 36.3429 100.965 35.8055 100.688C35.2769 100.411 34.8695 100.016 34.5835 99.505C34.2975 98.9937 34.1545 98.387 34.1545 97.685C34.1545 97.009 34.2932 96.411 34.5705 95.891C34.8479 95.371 35.2249 94.968 35.7015 94.682C36.1869 94.3873 36.7502 94.24 37.3915 94.24C38.0069 94.24 38.5399 94.3787 38.9905 94.656C39.4412 94.9247 39.7879 95.3103 40.0305 95.813C40.2732 96.307 40.3945 96.8963 40.3945 97.581V97.867H35.8835L35.9095 96.892H39.2245L38.7175 97.295C38.7262 96.7403 38.6179 96.3243 38.3925 96.047C38.1759 95.761 37.8595 95.618 37.4435 95.618C36.9929 95.618 36.6419 95.7827 36.3905 96.112C36.1479 96.4327 36.0265 96.905 36.0265 97.529C36.0265 98.2657 36.1695 98.7987 36.4555 99.128C36.7502 99.4573 37.1965 99.622 37.7945 99.622C38.1412 99.622 38.4835 99.5657 38.8215 99.453C39.1595 99.3403 39.4715 99.18 39.7575 98.972L40.2775 100.298ZM40.7717 95.878V94.409H45.6597V95.878H40.7717ZM45.6597 99.414V100.922C45.4777 100.991 45.2957 101.039 45.1137 101.065C44.9317 101.091 44.7367 101.104 44.5287 101.104C43.7141 101.104 43.0901 100.874 42.6567 100.415C42.2321 99.947 42.0197 99.3013 42.0197 98.478V92.862L43.9827 92.225V98.439C43.9827 98.699 44.0304 98.907 44.1257 99.063C44.2211 99.219 44.3467 99.3317 44.5027 99.401C44.6587 99.4617 44.8277 99.492 45.0097 99.492C45.1137 99.492 45.2134 99.4877 45.3087 99.479C45.4127 99.4617 45.5297 99.44 45.6597 99.414ZM52.9103 101.104C52.3383 101.104 51.8313 100.965 51.3893 100.688C50.9473 100.411 50.6049 100.016 50.3623 99.505C50.1196 98.9937 49.9983 98.3957 49.9983 97.711C49.9983 97.0263 50.1196 96.424 50.3623 95.904C50.6136 95.3753 50.9559 94.968 51.3893 94.682C51.8313 94.3873 52.3383 94.24 52.9103 94.24C53.4389 94.24 53.9069 94.37 54.3143 94.63C54.7216 94.89 54.9989 95.241 55.1463 95.683L54.9903 95.787V94.409H56.9273V101H54.9903V99.648L55.1463 99.674C54.9989 100.125 54.7216 100.476 54.3143 100.727C53.9069 100.978 53.4389 101.104 52.9103 101.104ZM53.4823 99.609C53.9589 99.609 54.3273 99.4443 54.5873 99.115C54.8559 98.7857 54.9903 98.309 54.9903 97.685C54.9903 97.061 54.8559 96.5843 54.5873 96.255C54.3273 95.917 53.9589 95.748 53.4823 95.748C53.0056 95.748 52.6286 95.9213 52.3513 96.268C52.0826 96.6147 51.9483 97.0957 51.9483 97.711C51.9483 98.3263 52.0783 98.7987 52.3383 99.128C52.6069 99.4487 52.9883 99.609 53.4823 99.609ZM62.298 101V91.744H65.886C66.9 91.744 67.7667 91.926 68.486 92.29C69.214 92.654 69.7687 93.1827 70.15 93.876C70.54 94.5607 70.735 95.3883 70.735 96.359C70.735 97.3383 70.5443 98.1747 70.163 98.868C69.7817 99.5527 69.227 100.081 68.499 100.454C67.7797 100.818 66.9087 101 65.886 101H62.298ZM64.326 99.362H65.743C66.731 99.362 67.472 99.115 67.966 98.621C68.46 98.1183 68.707 97.3643 68.707 96.359C68.707 94.3743 67.719 93.382 65.743 93.382H64.326V99.362ZM72.1973 101V94.409H74.1603V101H72.1973ZM72.1193 91.315H74.2383V93.161H72.1193V91.315ZM78.2997 101.104C77.043 101.104 76.0507 100.835 75.3227 100.298L75.8557 98.933C76.2023 99.1843 76.588 99.3793 77.0127 99.518C77.446 99.648 77.8793 99.713 78.3127 99.713C78.6507 99.713 78.9107 99.661 79.0927 99.557C79.2747 99.4443 79.3657 99.2927 79.3657 99.102C79.3657 98.9373 79.3007 98.8117 79.1707 98.725C79.0407 98.6297 78.811 98.543 78.4817 98.465L77.4027 98.205C76.7613 98.075 76.289 97.8583 75.9857 97.555C75.691 97.2517 75.5437 96.8487 75.5437 96.346C75.5437 95.9387 75.6607 95.579 75.8947 95.267C76.1373 94.9463 76.471 94.695 76.8957 94.513C77.3203 94.331 77.8143 94.24 78.3777 94.24C78.8543 94.24 79.3137 94.3137 79.7557 94.461C80.1977 94.5997 80.6007 94.799 80.9647 95.059L80.4187 96.372C80.0807 96.138 79.734 95.9603 79.3787 95.839C79.032 95.7177 78.694 95.657 78.3647 95.657C78.044 95.657 77.7927 95.7133 77.6107 95.826C77.4287 95.9387 77.3377 96.0947 77.3377 96.294C77.3377 96.4413 77.3897 96.5583 77.4937 96.645C77.6063 96.7317 77.8013 96.8097 78.0787 96.879L79.1837 97.126C79.8597 97.282 80.3493 97.516 80.6527 97.828C80.956 98.14 81.1077 98.556 81.1077 99.076C81.1077 99.7 80.8563 100.194 80.3537 100.558C79.8597 100.922 79.175 101.104 78.2997 101.104ZM85.4355 101.104C84.7248 101.104 84.1095 100.965 83.5895 100.688C83.0695 100.411 82.6708 100.021 82.3935 99.518C82.1248 99.0067 81.9905 98.4043 81.9905 97.711C81.9905 97.0177 82.1378 96.411 82.4325 95.891C82.7271 95.371 83.1388 94.968 83.6675 94.682C84.1961 94.3873 84.8158 94.24 85.5265 94.24C85.9945 94.24 86.4538 94.3137 86.9045 94.461C87.3551 94.6083 87.7191 94.8077 87.9965 95.059L87.4765 96.424C87.2165 96.216 86.9305 96.0557 86.6185 95.943C86.3065 95.8217 86.0031 95.761 85.7085 95.761C85.1798 95.761 84.7638 95.9213 84.4605 96.242C84.1571 96.5627 84.0055 97.0393 84.0055 97.672C84.0055 98.3133 84.1528 98.7943 84.4475 99.115C84.7508 99.4357 85.1711 99.596 85.7085 99.596C86.0031 99.596 86.3065 99.5397 86.6185 99.427C86.9305 99.3143 87.2165 99.1497 87.4765 98.933L87.9965 100.298C87.7105 100.549 87.3378 100.749 86.8785 100.896C86.4191 101.035 85.9381 101.104 85.4355 101.104ZM92.0757 101.104C91.3651 101.104 90.7497 100.965 90.2297 100.688C89.7097 100.411 89.3067 100.016 89.0207 99.505C88.7434 98.985 88.6047 98.374 88.6047 97.672C88.6047 96.97 88.7434 96.3633 89.0207 95.852C89.3067 95.3407 89.7097 94.9463 90.2297 94.669C90.7497 94.383 91.3651 94.24 92.0757 94.24C92.7691 94.24 93.3757 94.383 93.8957 94.669C94.4157 94.9463 94.8144 95.3407 95.0917 95.852C95.3777 96.3633 95.5207 96.97 95.5207 97.672C95.5207 98.374 95.3777 98.985 95.0917 99.505C94.8144 100.016 94.4157 100.411 93.8957 100.688C93.3757 100.965 92.7691 101.104 92.0757 101.104ZM92.0757 99.609C92.5524 99.609 92.9207 99.453 93.1807 99.141C93.4407 98.8203 93.5707 98.3307 93.5707 97.672C93.5707 97.022 93.4407 96.541 93.1807 96.229C92.9207 95.9083 92.5524 95.748 92.0757 95.748C91.5904 95.748 91.2134 95.9083 90.9447 96.229C90.6847 96.541 90.5547 97.022 90.5547 97.672C90.5547 98.3307 90.6847 98.8203 90.9447 99.141C91.2047 99.453 91.5817 99.609 92.0757 99.609ZM99.1934 101.104C98.3701 101.104 97.7548 100.874 97.3474 100.415C96.9401 99.9557 96.7364 99.2623 96.7364 98.335V94.409H98.6994V98.374C98.6994 98.7813 98.7818 99.0847 98.9464 99.284C99.1198 99.4747 99.3841 99.57 99.7394 99.57C100.138 99.57 100.463 99.4313 100.714 99.154C100.966 98.8767 101.091 98.5083 101.091 98.049V94.409H103.067V101H101.156V99.687L101.325 99.7C101.135 100.159 100.853 100.51 100.48 100.753C100.116 100.987 99.6874 101.104 99.1934 101.104ZM104.659 101V96.294C104.659 95.982 104.651 95.67 104.633 95.358C104.625 95.0373 104.599 94.721 104.555 94.409H106.401L106.544 95.696L106.401 95.683C106.627 95.215 106.939 94.8597 107.337 94.617C107.745 94.3657 108.213 94.24 108.741 94.24C110.293 94.24 111.068 95.163 111.068 97.009V101H109.105V97.1C109.105 96.632 109.019 96.294 108.845 96.086C108.681 95.878 108.416 95.774 108.052 95.774C107.619 95.774 107.272 95.9127 107.012 96.19C106.752 96.4673 106.622 96.84 106.622 97.308V101H104.659ZM111.878 95.878V94.409H116.766V95.878H111.878ZM116.766 99.414V100.922C116.584 100.991 116.402 101.039 116.22 101.065C116.038 101.091 115.843 101.104 115.635 101.104C114.821 101.104 114.197 100.874 113.763 100.415C113.339 99.947 113.126 99.3013 113.126 98.478V92.862L115.089 92.225V98.439C115.089 98.699 115.137 98.907 115.232 99.063C115.328 99.219 115.453 99.3317 115.609 99.401C115.765 99.4617 115.934 99.492 116.116 99.492C116.22 99.492 116.32 99.4877 116.415 99.479C116.519 99.4617 116.636 99.44 116.766 99.414ZM120.689 95.878V94.409H125.265V95.878H120.689ZM125.525 93.07C125.273 93.0093 125.061 92.979 124.888 92.979C124.706 92.979 124.537 93.0137 124.381 93.083C124.225 93.1523 124.103 93.265 124.017 93.421C123.93 93.577 123.887 93.785 123.887 94.045V101H121.924V93.993C121.924 93.1697 122.132 92.5283 122.548 92.069C122.972 91.601 123.592 91.367 124.407 91.367C124.606 91.367 124.797 91.38 124.979 91.406C125.169 91.432 125.351 91.4753 125.525 91.536V93.07ZM129.514 101.104C128.804 101.104 128.188 100.965 127.668 100.688C127.148 100.411 126.745 100.016 126.459 99.505C126.182 98.985 126.043 98.374 126.043 97.672C126.043 96.97 126.182 96.3633 126.459 95.852C126.745 95.3407 127.148 94.9463 127.668 94.669C128.188 94.383 128.804 94.24 129.514 94.24C130.208 94.24 130.814 94.383 131.334 94.669C131.854 94.9463 132.253 95.3407 132.53 95.852C132.816 96.3633 132.959 96.97 132.959 97.672C132.959 98.374 132.816 98.985 132.53 99.505C132.253 100.016 131.854 100.411 131.334 100.688C130.814 100.965 130.208 101.104 129.514 101.104ZM129.514 99.609C129.991 99.609 130.359 99.453 130.619 99.141C130.879 98.8203 131.009 98.3307 131.009 97.672C131.009 97.022 130.879 96.541 130.619 96.229C130.359 95.9083 129.991 95.748 129.514 95.748C129.029 95.748 128.652 95.9083 128.383 96.229C128.123 96.541 127.993 97.022 127.993 97.672C127.993 98.3307 128.123 98.8203 128.383 99.141C128.643 99.453 129.02 99.609 129.514 99.609ZM134.214 101V96.294C134.214 95.982 134.205 95.67 134.188 95.358C134.179 95.0373 134.153 94.721 134.11 94.409H135.956L136.164 96.151L135.956 96.047C136.06 95.4577 136.307 95.0113 136.697 94.708C137.096 94.4047 137.546 94.253 138.049 94.253C138.196 94.253 138.326 94.266 138.439 94.292C138.56 94.318 138.664 94.3483 138.751 94.383L138.738 96.177C138.417 96.0297 138.097 95.956 137.776 95.956C137.421 95.956 137.126 96.021 136.892 96.151C136.667 96.281 136.489 96.4673 136.359 96.71C136.238 96.944 136.177 97.2257 136.177 97.555V101H134.214ZM143.332 101V91.744H149.715V93.317H145.321V95.501H149.442V97.087H145.321V99.427H149.715V101H143.332ZM152.934 101L150.061 94.422H152.102L154 99.193H153.61L155.547 94.422H157.484L154.585 101H152.934ZM163.816 100.298C163.495 100.549 163.105 100.749 162.646 100.896C162.186 101.035 161.723 101.104 161.255 101.104C160.518 101.104 159.881 100.965 159.344 100.688C158.815 100.411 158.408 100.016 158.122 99.505C157.836 98.9937 157.693 98.387 157.693 97.685C157.693 97.009 157.831 96.411 158.109 95.891C158.386 95.371 158.763 94.968 159.24 94.682C159.725 94.3873 160.288 94.24 160.93 94.24C161.545 94.24 162.078 94.3787 162.529 94.656C162.979 94.9247 163.326 95.3103 163.569 95.813C163.811 96.307 163.933 96.8963 163.933 97.581V97.867H159.422L159.448 96.892H162.763L162.256 97.295C162.264 96.7403 162.156 96.3243 161.931 96.047C161.714 95.761 161.398 95.618 160.982 95.618C160.531 95.618 160.18 95.7827 159.929 96.112C159.686 96.4327 159.565 96.905 159.565 97.529C159.565 98.2657 159.708 98.7987 159.994 99.128C160.288 99.4573 160.735 99.622 161.333 99.622C161.679 99.622 162.022 99.5657 162.36 99.453C162.698 99.3403 163.01 99.18 163.296 98.972L163.816 100.298ZM165.165 101V96.294C165.165 95.982 165.156 95.67 165.139 95.358C165.13 95.0373 165.104 94.721 165.061 94.409H166.907L167.115 96.151L166.907 96.047C167.011 95.4577 167.258 95.0113 167.648 94.708C168.047 94.4047 168.497 94.253 169 94.253C169.147 94.253 169.277 94.266 169.39 94.292C169.511 94.318 169.615 94.3483 169.702 94.383L169.689 96.177C169.368 96.0297 169.048 95.956 168.727 95.956C168.372 95.956 168.077 96.021 167.843 96.151C167.618 96.281 167.44 96.4673 167.31 96.71C167.189 96.944 167.128 97.2257 167.128 97.555V101H165.165ZM170.852 103.964L170.397 102.456C170.804 102.378 171.138 102.278 171.398 102.157C171.666 102.044 171.887 101.901 172.061 101.728C172.234 101.555 172.377 101.342 172.49 101.091L172.997 99.96L173.517 99.193L175.454 94.409H177.391L174.362 101.338C174.093 101.945 173.785 102.426 173.439 102.781C173.092 103.136 172.702 103.405 172.269 103.587C171.835 103.769 171.363 103.895 170.852 103.964ZM173.049 101.494L169.968 94.409H172.009L173.907 99.193L173.049 101.494ZM29.265 117.117C28.3203 117.117 27.5013 116.922 26.808 116.532C26.1147 116.142 25.5817 115.592 25.209 114.881C24.8363 114.162 24.65 113.321 24.65 112.359C24.65 111.406 24.8363 110.574 25.209 109.863C25.5817 109.152 26.1147 108.602 26.808 108.212C27.5013 107.822 28.3203 107.627 29.265 107.627C29.8803 107.627 30.4653 107.722 31.02 107.913C31.5747 108.095 32.034 108.355 32.398 108.693L31.761 110.149C31.345 109.837 30.9377 109.612 30.539 109.473C30.149 109.326 29.7373 109.252 29.304 109.252C28.4807 109.252 27.8437 109.516 27.393 110.045C26.9423 110.565 26.717 111.336 26.717 112.359C26.717 113.382 26.9423 114.162 27.393 114.699C27.8437 115.228 28.4807 115.492 29.304 115.492C29.7373 115.492 30.149 115.423 30.539 115.284C30.9377 115.137 31.345 114.907 31.761 114.595L32.398 116.051C32.034 116.389 31.5747 116.653 31.02 116.844C30.4653 117.026 29.8803 117.117 29.265 117.117ZM36.7115 117.104C36.0008 117.104 35.3855 116.965 34.8655 116.688C34.3455 116.411 33.9425 116.016 33.6565 115.505C33.3791 114.985 33.2405 114.374 33.2405 113.672C33.2405 112.97 33.3791 112.363 33.6565 111.852C33.9425 111.341 34.3455 110.946 34.8655 110.669C35.3855 110.383 36.0008 110.24 36.7115 110.24C37.4048 110.24 38.0115 110.383 38.5315 110.669C39.0515 110.946 39.4501 111.341 39.7275 111.852C40.0135 112.363 40.1565 112.97 40.1565 113.672C40.1565 114.374 40.0135 114.985 39.7275 115.505C39.4501 116.016 39.0515 116.411 38.5315 116.688C38.0115 116.965 37.4048 117.104 36.7115 117.104ZM36.7115 115.609C37.1881 115.609 37.5565 115.453 37.8165 115.141C38.0765 114.82 38.2065 114.331 38.2065 113.672C38.2065 113.022 38.0765 112.541 37.8165 112.229C37.5565 111.908 37.1881 111.748 36.7115 111.748C36.2261 111.748 35.8491 111.908 35.5805 112.229C35.3205 112.541 35.1905 113.022 35.1905 113.672C35.1905 114.331 35.3205 114.82 35.5805 115.141C35.8405 115.453 36.2175 115.609 36.7115 115.609ZM43.8292 117.104C43.0058 117.104 42.3905 116.874 41.9832 116.415C41.5758 115.956 41.3722 115.262 41.3722 114.335V110.409H43.3352V114.374C43.3352 114.781 43.4175 115.085 43.5822 115.284C43.7555 115.475 44.0198 115.57 44.3752 115.57C44.7738 115.57 45.0988 115.431 45.3502 115.154C45.6015 114.877 45.7272 114.508 45.7272 114.049V110.409H47.7032V117H45.7922V115.687L45.9612 115.7C45.7705 116.159 45.4888 116.51 45.1162 116.753C44.7522 116.987 44.3232 117.104 43.8292 117.104ZM49.295 117V112.294C49.295 111.982 49.2863 111.67 49.269 111.358C49.2603 111.037 49.2343 110.721 49.191 110.409H51.037L51.245 112.151L51.037 112.047C51.141 111.458 51.388 111.011 51.778 110.708C52.1766 110.405 52.6273 110.253 53.13 110.253C53.2773 110.253 53.4073 110.266 53.52 110.292C53.6413 110.318 53.7453 110.348 53.832 110.383L53.819 112.177C53.4983 112.03 53.1776 111.956 52.857 111.956C52.5016 111.956 52.207 112.021 51.973 112.151C51.7476 112.281 51.57 112.467 51.44 112.71C51.3186 112.944 51.258 113.226 51.258 113.555V117H49.295ZM57.0985 117.104C55.8418 117.104 54.8495 116.835 54.1215 116.298L54.6545 114.933C55.0012 115.184 55.3868 115.379 55.8115 115.518C56.2448 115.648 56.6782 115.713 57.1115 115.713C57.4495 115.713 57.7095 115.661 57.8915 115.557C58.0735 115.444 58.1645 115.293 58.1645 115.102C58.1645 114.937 58.0995 114.812 57.9695 114.725C57.8395 114.63 57.6098 114.543 57.2805 114.465L56.2015 114.205C55.5602 114.075 55.0878 113.858 54.7845 113.555C54.4898 113.252 54.3425 112.849 54.3425 112.346C54.3425 111.939 54.4595 111.579 54.6935 111.267C54.9362 110.946 55.2698 110.695 55.6945 110.513C56.1192 110.331 56.6132 110.24 57.1765 110.24C57.6532 110.24 58.1125 110.314 58.5545 110.461C58.9965 110.6 59.3995 110.799 59.7635 111.059L59.2175 112.372C58.8795 112.138 58.5328 111.96 58.1775 111.839C57.8308 111.718 57.4928 111.657 57.1635 111.657C56.8428 111.657 56.5915 111.713 56.4095 111.826C56.2275 111.939 56.1365 112.095 56.1365 112.294C56.1365 112.441 56.1885 112.558 56.2925 112.645C56.4052 112.732 56.6002 112.81 56.8775 112.879L57.9825 113.126C58.6585 113.282 59.1482 113.516 59.4515 113.828C59.7548 114.14 59.9065 114.556 59.9065 115.076C59.9065 115.7 59.6552 116.194 59.1525 116.558C58.6585 116.922 57.9738 117.104 57.0985 117.104ZM66.9123 116.298C66.5916 116.549 66.2016 116.749 65.7423 116.896C65.283 117.035 64.8193 117.104 64.3513 117.104C63.6146 117.104 62.9776 116.965 62.4403 116.688C61.9116 116.411 61.5043 116.016 61.2183 115.505C60.9323 114.994 60.7893 114.387 60.7893 113.685C60.7893 113.009 60.928 112.411 61.2053 111.891C61.4826 111.371 61.8596 110.968 62.3363 110.682C62.8216 110.387 63.385 110.24 64.0263 110.24C64.6416 110.24 65.1746 110.379 65.6253 110.656C66.076 110.925 66.4226 111.31 66.6653 111.813C66.908 112.307 67.0293 112.896 67.0293 113.581V113.867H62.5183L62.5443 112.892H65.8593L65.3523 113.295C65.361 112.74 65.2526 112.324 65.0273 112.047C64.8106 111.761 64.4943 111.618 64.0783 111.618C63.6276 111.618 63.2766 111.783 63.0253 112.112C62.7826 112.433 62.6613 112.905 62.6613 113.529C62.6613 114.266 62.8043 114.799 63.0903 115.128C63.385 115.457 63.8313 115.622 64.4293 115.622C64.776 115.622 65.1183 115.566 65.4563 115.453C65.7943 115.34 66.1063 115.18 66.3923 114.972L66.9123 116.298ZM76.299 117.117C75.3717 117.117 74.57 116.922 73.894 116.532C73.218 116.142 72.6937 115.592 72.321 114.881C71.957 114.17 71.775 113.33 71.775 112.359C71.775 111.397 71.957 110.561 72.321 109.85C72.6937 109.139 73.218 108.593 73.894 108.212C74.57 107.822 75.3717 107.627 76.299 107.627C77.2263 107.627 78.0237 107.822 78.691 108.212C79.367 108.593 79.887 109.139 80.251 109.85C80.615 110.561 80.797 111.397 80.797 112.359C80.797 113.33 80.615 114.17 80.251 114.881C79.887 115.592 79.367 116.142 78.691 116.532C78.0237 116.922 77.2263 117.117 76.299 117.117ZM76.299 115.544C77.0617 115.544 77.664 115.275 78.106 114.738C78.5567 114.192 78.782 113.399 78.782 112.359C78.782 111.319 78.5567 110.535 78.106 110.006C77.664 109.469 77.0617 109.2 76.299 109.2C75.5277 109.2 74.921 109.469 74.479 110.006C74.037 110.535 73.816 111.319 73.816 112.359C73.816 113.408 74.037 114.201 74.479 114.738C74.921 115.275 75.5277 115.544 76.299 115.544ZM82.252 117V112.294C82.252 111.982 82.2433 111.67 82.226 111.358C82.2173 111.037 82.1913 110.721 82.148 110.409H83.994L84.202 112.151L83.994 112.047C84.098 111.458 84.345 111.011 84.735 110.708C85.1337 110.405 85.5843 110.253 86.087 110.253C86.2343 110.253 86.3643 110.266 86.477 110.292C86.5983 110.318 86.7023 110.348 86.789 110.383L86.776 112.177C86.4553 112.03 86.1347 111.956 85.814 111.956C85.4587 111.956 85.164 112.021 84.93 112.151C84.7047 112.281 84.527 112.467 84.397 112.71C84.2757 112.944 84.215 113.226 84.215 113.555V117H82.252ZM94.0611 117H92.1241V115.388L92.2801 115.674C92.1327 116.125 91.8554 116.476 91.4481 116.727C91.0407 116.978 90.5727 117.104 90.0441 117.104C89.4721 117.104 88.9651 116.961 88.5231 116.675C88.0897 116.38 87.7474 115.977 87.4961 115.466C87.2534 114.946 87.1321 114.339 87.1321 113.646C87.1321 112.961 87.2534 112.363 87.4961 111.852C87.7387 111.341 88.0811 110.946 88.5231 110.669C88.9651 110.383 89.4721 110.24 90.0441 110.24C90.5727 110.24 91.0407 110.374 91.4481 110.643C91.8554 110.903 92.1327 111.25 92.2801 111.683L92.0981 111.917V107.432H94.0611V117ZM90.6161 115.609C91.0927 115.609 91.4611 115.444 91.7211 115.115C91.9897 114.786 92.1241 114.305 92.1241 113.672C92.1241 113.065 91.9897 112.593 91.7211 112.255C91.4611 111.917 91.0927 111.748 90.6161 111.748C90.1221 111.748 89.7407 111.913 89.4721 112.242C89.2121 112.571 89.0821 113.039 89.0821 113.646C89.0821 114.279 89.2164 114.764 89.4851 115.102C89.7624 115.44 90.1394 115.609 90.6161 115.609ZM101.444 116.298C101.123 116.549 100.733 116.749 100.274 116.896C99.8142 117.035 99.3505 117.104 98.8825 117.104C98.1459 117.104 97.5089 116.965 96.9715 116.688C96.4429 116.411 96.0355 116.016 95.7495 115.505C95.4635 114.994 95.3205 114.387 95.3205 113.685C95.3205 113.009 95.4592 112.411 95.7365 111.891C96.0139 111.371 96.3909 110.968 96.8675 110.682C97.3529 110.387 97.9162 110.24 98.5575 110.24C99.1729 110.24 99.7059 110.379 100.157 110.656C100.607 110.925 100.954 111.31 101.197 111.813C101.439 112.307 101.561 112.896 101.561 113.581V113.867H97.0495L97.0755 112.892H100.391L99.8835 113.295C99.8922 112.74 99.7839 112.324 99.5585 112.047C99.3419 111.761 99.0255 111.618 98.6095 111.618C98.1589 111.618 97.8079 111.783 97.5565 112.112C97.3139 112.433 97.1925 112.905 97.1925 113.529C97.1925 114.266 97.3355 114.799 97.6215 115.128C97.9162 115.457 98.3625 115.622 98.9605 115.622C99.3072 115.622 99.6495 115.566 99.9875 115.453C100.326 115.34 100.638 115.18 100.924 114.972L101.444 116.298ZM102.793 117V112.294C102.793 111.982 102.784 111.67 102.767 111.358C102.758 111.037 102.732 110.721 102.689 110.409H104.535L104.743 112.151L104.535 112.047C104.639 111.458 104.886 111.011 105.276 110.708C105.675 110.405 106.125 110.253 106.628 110.253C106.775 110.253 106.905 110.266 107.018 110.292C107.139 110.318 107.243 110.348 107.33 110.383L107.317 112.177C106.996 112.03 106.676 111.956 106.355 111.956C106 111.956 105.705 112.021 105.471 112.151C105.246 112.281 105.068 112.467 104.938 112.71C104.817 112.944 104.756 113.226 104.756 113.555V117H102.793ZM114.927 117.104C114.217 117.104 113.601 116.965 113.081 116.688C112.561 116.411 112.158 116.016 111.872 115.505C111.595 114.985 111.456 114.374 111.456 113.672C111.456 112.97 111.595 112.363 111.872 111.852C112.158 111.341 112.561 110.946 113.081 110.669C113.601 110.383 114.217 110.24 114.927 110.24C115.621 110.24 116.227 110.383 116.747 110.669C117.267 110.946 117.666 111.341 117.943 111.852C118.229 112.363 118.372 112.97 118.372 113.672C118.372 114.374 118.229 114.985 117.943 115.505C117.666 116.016 117.267 116.411 116.747 116.688C116.227 116.965 115.621 117.104 114.927 117.104ZM114.927 115.609C115.404 115.609 115.772 115.453 116.032 115.141C116.292 114.82 116.422 114.331 116.422 113.672C116.422 113.022 116.292 112.541 116.032 112.229C115.772 111.908 115.404 111.748 114.927 111.748C114.442 111.748 114.065 111.908 113.796 112.229C113.536 112.541 113.406 113.022 113.406 113.672C113.406 114.331 113.536 114.82 113.796 115.141C114.056 115.453 114.433 115.609 114.927 115.609ZM119.627 117V112.294C119.627 111.982 119.618 111.67 119.601 111.358C119.592 111.037 119.566 110.721 119.523 110.409H121.369L121.512 111.696L121.369 111.683C121.594 111.215 121.906 110.86 122.305 110.617C122.712 110.366 123.18 110.24 123.709 110.24C125.26 110.24 126.036 111.163 126.036 113.009V117H124.073V113.1C124.073 112.632 123.986 112.294 123.813 112.086C123.648 111.878 123.384 111.774 123.02 111.774C122.587 111.774 122.24 111.913 121.98 112.19C121.72 112.467 121.59 112.84 121.59 113.308V117H119.627ZM127.587 117V107.432H129.55V117H127.587ZM131.115 119.964L130.66 118.456C131.068 118.378 131.401 118.278 131.661 118.157C131.93 118.044 132.151 117.901 132.324 117.728C132.498 117.555 132.641 117.342 132.753 117.091L133.26 115.96L133.78 115.193L135.717 110.409H137.654L134.625 117.338C134.357 117.945 134.049 118.426 133.702 118.781C133.356 119.136 132.966 119.405 132.532 119.587C132.099 119.769 131.627 119.895 131.115 119.964ZM133.312 117.494L130.231 110.409H132.272L134.17 115.193L133.312 117.494ZM145.143 117L140.97 107.744H143.089L146.274 115.154H145.676L148.887 107.744H150.941L146.781 117H145.143ZM153.33 117.104C152.758 117.104 152.251 116.965 151.809 116.688C151.367 116.411 151.025 116.016 150.782 115.505C150.54 114.994 150.418 114.396 150.418 113.711C150.418 113.026 150.54 112.424 150.782 111.904C151.034 111.375 151.376 110.968 151.809 110.682C152.251 110.387 152.758 110.24 153.33 110.24C153.859 110.24 154.327 110.37 154.734 110.63C155.142 110.89 155.419 111.241 155.566 111.683L155.41 111.787V110.409H157.347V117H155.41V115.648L155.566 115.674C155.419 116.125 155.142 116.476 154.734 116.727C154.327 116.978 153.859 117.104 153.33 117.104ZM153.902 115.609C154.379 115.609 154.747 115.444 155.007 115.115C155.276 114.786 155.41 114.309 155.41 113.685C155.41 113.061 155.276 112.584 155.007 112.255C154.747 111.917 154.379 111.748 153.902 111.748C153.426 111.748 153.049 111.921 152.771 112.268C152.503 112.615 152.368 113.096 152.368 113.711C152.368 114.326 152.498 114.799 152.758 115.128C153.027 115.449 153.408 115.609 153.902 115.609ZM158.932 117V107.432H160.895V117H158.932ZM162.499 117V110.409H164.462V117H162.499ZM162.421 107.315H164.54V109.161H162.421V107.315ZM172.67 117H170.733V115.388L170.889 115.674C170.742 116.125 170.465 116.476 170.057 116.727C169.65 116.978 169.182 117.104 168.653 117.104C168.081 117.104 167.574 116.961 167.132 116.675C166.699 116.38 166.357 115.977 166.105 115.466C165.863 114.946 165.741 114.339 165.741 113.646C165.741 112.961 165.863 112.363 166.105 111.852C166.348 111.341 166.69 110.946 167.132 110.669C167.574 110.383 168.081 110.24 168.653 110.24C169.182 110.24 169.65 110.374 170.057 110.643C170.465 110.903 170.742 111.25 170.889 111.683L170.707 111.917V107.432H172.67V117ZM169.225 115.609C169.702 115.609 170.07 115.444 170.33 115.115C170.599 114.786 170.733 114.305 170.733 113.672C170.733 113.065 170.599 112.593 170.33 112.255C170.07 111.917 169.702 111.748 169.225 111.748C168.731 111.748 168.35 111.913 168.081 112.242C167.821 112.571 167.691 113.039 167.691 113.646C167.691 114.279 167.826 114.764 168.094 115.102C168.372 115.44 168.749 115.609 169.225 115.609ZM177.17 111.878V110.409H181.746V111.878H177.17ZM182.006 109.07C181.755 109.009 181.542 108.979 181.369 108.979C181.187 108.979 181.018 109.014 180.862 109.083C180.706 109.152 180.585 109.265 180.498 109.421C180.411 109.577 180.368 109.785 180.368 110.045V117H178.405V109.993C178.405 109.17 178.613 108.528 179.029 108.069C179.454 107.601 180.073 107.367 180.888 107.367C181.087 107.367 181.278 107.38 181.46 107.406C181.651 107.432 181.833 107.475 182.006 107.536V109.07ZM185.996 117.104C185.285 117.104 184.67 116.965 184.15 116.688C183.63 116.411 183.227 116.016 182.941 115.505C182.663 114.985 182.525 114.374 182.525 113.672C182.525 112.97 182.663 112.363 182.941 111.852C183.227 111.341 183.63 110.946 184.15 110.669C184.67 110.383 185.285 110.24 185.996 110.24C186.689 110.24 187.296 110.383 187.816 110.669C188.336 110.946 188.734 111.341 189.012 111.852C189.298 112.363 189.441 112.97 189.441 113.672C189.441 114.374 189.298 114.985 189.012 115.505C188.734 116.016 188.336 116.411 187.816 116.688C187.296 116.965 186.689 117.104 185.996 117.104ZM185.996 115.609C186.472 115.609 186.841 115.453 187.101 115.141C187.361 114.82 187.491 114.331 187.491 113.672C187.491 113.022 187.361 112.541 187.101 112.229C186.841 111.908 186.472 111.748 185.996 111.748C185.51 111.748 185.133 111.908 184.865 112.229C184.605 112.541 184.475 113.022 184.475 113.672C184.475 114.331 184.605 114.82 184.865 115.141C185.125 115.453 185.502 115.609 185.996 115.609ZM190.695 117V112.294C190.695 111.982 190.687 111.67 190.669 111.358C190.661 111.037 190.635 110.721 190.591 110.409H192.437L192.645 112.151L192.437 112.047C192.541 111.458 192.788 111.011 193.178 110.708C193.577 110.405 194.028 110.253 194.53 110.253C194.678 110.253 194.808 110.266 194.92 110.292C195.042 110.318 195.146 110.348 195.232 110.383L195.219 112.177C194.899 112.03 194.578 111.956 194.257 111.956C193.902 111.956 193.607 112.021 193.373 112.151C193.148 112.281 192.97 112.467 192.84 112.71C192.719 112.944 192.658 113.226 192.658 113.555V117H190.695ZM27.055 133V125.395H24.156V123.744H32.008V125.395H29.109V133H27.055ZM35.0484 133.104C34.3377 133.104 33.7224 132.965 33.2024 132.688C32.6824 132.411 32.2794 132.016 31.9934 131.505C31.716 130.985 31.5774 130.374 31.5774 129.672C31.5774 128.97 31.716 128.363 31.9934 127.852C32.2794 127.341 32.6824 126.946 33.2024 126.669C33.7224 126.383 34.3377 126.24 35.0484 126.24C35.7417 126.24 36.3484 126.383 36.8684 126.669C37.3884 126.946 37.787 127.341 38.0644 127.852C38.3504 128.363 38.4934 128.97 38.4934 129.672C38.4934 130.374 38.3504 130.985 38.0644 131.505C37.787 132.016 37.3884 132.411 36.8684 132.688C36.3484 132.965 35.7417 133.104 35.0484 133.104ZM35.0484 131.609C35.525 131.609 35.8934 131.453 36.1534 131.141C36.4134 130.82 36.5434 130.331 36.5434 129.672C36.5434 129.022 36.4134 128.541 36.1534 128.229C35.8934 127.908 35.525 127.748 35.0484 127.748C34.563 127.748 34.186 127.908 33.9174 128.229C33.6574 128.541 33.5274 129.022 33.5274 129.672C33.5274 130.331 33.6574 130.82 33.9174 131.141C34.1774 131.453 34.5544 131.609 35.0484 131.609ZM46.3521 133H44.4151V131.388L44.5711 131.674C44.4237 132.125 44.1464 132.476 43.7391 132.727C43.3317 132.978 42.8637 133.104 42.3351 133.104C41.7631 133.104 41.2561 132.961 40.8141 132.675C40.3807 132.38 40.0384 131.977 39.7871 131.466C39.5444 130.946 39.4231 130.339 39.4231 129.646C39.4231 128.961 39.5444 128.363 39.7871 127.852C40.0297 127.341 40.3721 126.946 40.8141 126.669C41.2561 126.383 41.7631 126.24 42.3351 126.24C42.8637 126.24 43.3317 126.374 43.7391 126.643C44.1464 126.903 44.4237 127.25 44.5711 127.683L44.3891 127.917V123.432H46.3521V133ZM42.9071 131.609C43.3837 131.609 43.7521 131.444 44.0121 131.115C44.2807 130.786 44.4151 130.305 44.4151 129.672C44.4151 129.065 44.2807 128.593 44.0121 128.255C43.7521 127.917 43.3837 127.748 42.9071 127.748C42.4131 127.748 42.0317 127.913 41.7631 128.242C41.5031 128.571 41.3731 129.039 41.3731 129.646C41.3731 130.279 41.5074 130.764 41.7761 131.102C42.0534 131.44 42.4304 131.609 42.9071 131.609ZM50.5236 133.104C49.9516 133.104 49.4446 132.965 49.0026 132.688C48.5606 132.411 48.2182 132.016 47.9756 131.505C47.7329 130.994 47.6116 130.396 47.6116 129.711C47.6116 129.026 47.7329 128.424 47.9756 127.904C48.2269 127.375 48.5692 126.968 49.0026 126.682C49.4446 126.387 49.9516 126.24 50.5236 126.24C51.0522 126.24 51.5202 126.37 51.9276 126.63C52.3349 126.89 52.6122 127.241 52.7596 127.683L52.6036 127.787V126.409H54.5406V133H52.6036V131.648L52.7596 131.674C52.6122 132.125 52.3349 132.476 51.9276 132.727C51.5202 132.978 51.0522 133.104 50.5236 133.104ZM51.0956 131.609C51.5722 131.609 51.9406 131.444 52.2006 131.115C52.4692 130.786 52.6036 130.309 52.6036 129.685C52.6036 129.061 52.4692 128.584 52.2006 128.255C51.9406 127.917 51.5722 127.748 51.0956 127.748C50.6189 127.748 50.2419 127.921 49.9646 128.268C49.6959 128.615 49.5616 129.096 49.5616 129.711C49.5616 130.326 49.6916 130.799 49.9516 131.128C50.2202 131.449 50.6016 131.609 51.0956 131.609ZM56.086 135.964L55.631 134.456C56.0384 134.378 56.372 134.278 56.632 134.157C56.9007 134.044 57.1217 133.901 57.295 133.728C57.4684 133.555 57.6114 133.342 57.724 133.091L58.231 131.96L58.751 131.193L60.688 126.409H62.625L59.596 133.338C59.3274 133.945 59.0197 134.426 58.673 134.781C58.3264 135.136 57.9364 135.405 57.503 135.587C57.0697 135.769 56.5974 135.895 56.086 135.964ZM58.283 133.494L55.202 126.409H57.243L59.141 131.193L58.283 133.494ZM62.596 130.907H64.728V133H62.596V130.907ZM66.479 130.023L65.868 123.731L68.286 123.744L67.675 130.023H66.479ZM66.011 130.907H68.143V133H66.011V130.907Z" fill="white"/>
</svg>
