<svg width="60" height="60" viewBox="0 0 60 60" fill="none" xmlns="http://www.w3.org/2000/svg">
<path fill-rule="evenodd" clip-rule="evenodd" d="M0 40H4V-0.000976562H0V40Z" fill="#41EAD4"/>
<path fill-rule="evenodd" clip-rule="evenodd" d="M8 40H12V10H8V40Z" fill="#FF9F1C"/>
<path fill-rule="evenodd" clip-rule="evenodd" d="M16 40H20V6H16V40Z" fill="#1B98E0"/>
<path fill-rule="evenodd" clip-rule="evenodd" d="M24 40H28V22H24V40Z" fill="#F71735"/>
<path fill-rule="evenodd" clip-rule="evenodd" d="M32 42H0V40H31V20C31 19.449 31.449 19 32 19C32.551 19 33 19.449 33 20V41C33 41.551 32.551 42 32 42Z" fill="#4F5D75"/>
<path fill-rule="evenodd" clip-rule="evenodd" d="M14.9219 51.9102C9.77688 51.0662 8.93388 50.2232 8.08988 45.0782C8.08188 45.0312 8.04688 45.0002 7.99988 45.0002C7.95288 45.0002 7.91788 45.0312 7.90988 45.0782C7.06588 50.2232 6.22288 51.0662 1.07788 51.9102C1.03088 51.9182 0.999878 51.9532 0.999878 52.0002C0.999878 52.0472 1.03088 52.0822 1.07788 52.0902C6.22288 52.9332 7.06588 53.7772 7.90988 58.9222C7.91788 58.9692 7.95288 59.0002 7.99988 59.0002C8.04688 59.0002 8.08188 58.9692 8.08988 58.9222C8.93388 53.7772 9.77688 52.9332 14.9219 52.0902C14.9689 52.0822 14.9999 52.0472 14.9999 52.0002C14.9999 51.9532 14.9689 51.9182 14.9219 51.9102ZM58.9219 7.91024C53.7769 7.06624 52.9339 6.22324 52.0899 1.07824C52.0819 1.03124 52.0469 1.00024 51.9999 1.00024C51.9529 1.00024 51.9179 1.03124 51.9099 1.07824C51.0669 6.22324 50.2229 7.06624 45.0779 7.91024C45.0309 7.91824 44.9999 7.95324 44.9999 8.00024C44.9999 8.04724 45.0309 8.08224 45.0779 8.09024C50.2229 8.93424 51.0669 9.77724 51.9099 14.9222C51.9179 14.9692 51.9529 15.0002 51.9999 15.0002C52.0469 15.0002 52.0819 14.9692 52.0899 14.9222C52.9339 9.77724 53.7769 8.93424 58.9219 8.09024C58.9689 8.08224 58.9999 8.04724 58.9999 8.00024C58.9999 7.95324 58.9689 7.91824 58.9219 7.91024Z" fill="#1B98E0"/>
<path fill-rule="evenodd" clip-rule="evenodd" d="M43.7109 42H50.2889C55.6519 42 59.9999 46.348 59.9999 51.711V60H33.9999V51.711C33.9999 46.348 38.3479 42 43.7109 42Z" fill="#2D3142"/>
<path fill-rule="evenodd" clip-rule="evenodd" d="M50.1094 52L47.0004 47.715L43.8904 52L43.0004 42H51.0004L50.1094 52Z" fill="#247BA0"/>
<path fill-rule="evenodd" clip-rule="evenodd" d="M47 48L49 42H45L47 48Z" fill="#F71735"/>
<path fill-rule="evenodd" clip-rule="evenodd" d="M55 60H53V51C53 50.449 53.449 50 54 50C54.551 50 55 50.449 55 51V60ZM41 60H39V51C39 50.449 39.449 50 40 50C40.551 50 41 50.449 41 51V60Z" fill="#4F5D75"/>
<path fill-rule="evenodd" clip-rule="evenodd" d="M53.9219 30.8789V31.4299C55.1519 31.5199 56.0819 32.5859 55.9999 33.8199C56.0079 34.4419 55.7889 35.0429 55.3909 35.5199C55.0269 35.9569 54.4879 36.2149 53.9219 36.2189C53.8519 38.5589 52.4769 40.6599 50.3589 41.6599L48.4609 42.6489C47.5429 43.1169 46.4569 43.1169 45.5389 42.6489L43.6409 41.6599C42.5859 41.1289 41.6879 40.3319 41.0309 39.3519C40.4139 38.4219 40.0859 37.3319 40.0779 36.2189C38.8869 36.0509 37.9999 35.0309 37.9999 33.8239C37.9999 32.6209 38.8869 31.5979 40.0779 31.4299V30.9999L48.6019 28.9999H51.0119L53.9219 30.8789Z" fill="#FFBF69"/>
<path fill-rule="evenodd" clip-rule="evenodd" d="M55 32C53.574 31.988 52.219 31.367 51.273 30.301L50 31L49.91 29C48.105 30.961 45.547 32.051 42.887 32H39V29.602C39 25.621 41.93 24 45.547 24H48.453C52.07 24 55 25.625 55 29.602V32Z" fill="#2D3142"/>
</svg>
