<svg width="20" height="21" viewBox="0 0 20 21" fill="none" xmlns="http://www.w3.org/2000/svg">
<g id="ICON">
<path id="Fill 1" fill-rule="evenodd" clip-rule="evenodd" d="M18.2964 13.8639C18.2941 14.5559 17.7324 15.1159 17.0404 15.1204H15.8975V11.6919C15.8975 11.3753 15.641 11.1204 15.3261 11.1204H4.11353C3.79867 11.1204 3.5421 11.3753 3.5421 11.6919V15.1204H2.39925C1.70725 15.1159 1.14496 14.5559 1.14267 13.8639V9.29243C1.13353 8.953 1.26325 8.625 1.49982 8.38157C1.73639 8.13815 2.05982 8.00215 2.39925 7.99986H17.029C17.7227 8.00215 18.2855 8.56672 18.2855 9.26329L18.2964 13.8639ZM4.68496 18.857H14.777V12.2273H4.68496V18.857ZM4.8101 6.857H14.6404V1.71415H4.8101V6.857ZM17.0404 6.857H15.7838V1.14272C15.7838 0.827861 15.5267 0.571289 15.2124 0.571289H4.23867C3.92382 0.571289 3.66725 0.827861 3.66725 1.14272V6.857H2.39925C1.07353 6.85929 -0.000183147 7.93529 -0.000183147 9.26329V13.8347C-0.00475458 14.473 0.247817 15.0873 0.698674 15.5381C1.14953 15.9913 1.76096 16.2456 2.39925 16.2456H3.5421V19.4107C3.5421 19.7279 3.79867 19.9821 4.11353 19.9821H15.3484C15.6632 19.9821 15.9198 19.7279 15.9198 19.4107V16.2456H17.0627C18.3861 16.2433 19.4592 15.1696 19.4615 13.8461V9.27472C19.4667 8.63186 19.2124 8.01357 18.757 7.56043C18.3015 7.105 17.6832 6.85243 17.0404 6.857Z" fill="#1D1D1B"/>
<path id="Fill 4" fill-rule="evenodd" clip-rule="evenodd" d="M15.0915 9.02197H13.9018C13.587 9.02197 13.3304 9.27854 13.3304 9.5934C13.3304 9.91054 13.587 10.1648 13.9018 10.1648H15.0915C15.4064 10.1648 15.663 9.91054 15.663 9.5934C15.663 9.27854 15.4064 9.02197 15.0915 9.02197ZM12.315 16.2345H7.32582C7.00868 16.2345 6.75439 16.4911 6.75439 16.806C6.75439 17.1203 7.00868 17.3774 7.32582 17.3774H12.315C12.6287 17.3774 12.8864 17.1203 12.8864 16.806C12.8864 16.4911 12.6287 16.2345 12.315 16.2345ZM12.315 13.6631H7.32582C7.00868 13.6631 6.75439 13.9197 6.75439 14.2345C6.75439 14.5488 7.00868 14.806 7.32582 14.806H12.315C12.6287 14.806 12.8864 14.5488 12.8864 14.2345C12.8864 13.9197 12.6287 13.6631 12.315 13.6631Z" fill="#1D1D1B"/>
</g>
</svg>
