<svg width="100" height="100" viewBox="0 0 100 100" fill="none" xmlns="http://www.w3.org/2000/svg">
<circle cx="50" cy="50" r="50" fill="#E8F1FF"/>
<path fill-rule="evenodd" clip-rule="evenodd" d="M15 85.25L19 89C21.5 91 21.5 91.5 25 93C25 93 39.625 100 50.5 100C60.0417 100 78 92 78 92C81 90.5 80 90.5 82 88.5L85 85.25C85 73.6125 61.69 67.75 50 67.75C38.31 67.75 15 73.6125 15 85.25ZM50 59C59.6731 59 67.5 51.1731 67.5 41.5C67.5 31.8269 59.6731 24 50 24C40.3269 24 32.5 31.8269 32.5 41.5C32.5 51.1731 40.3269 59 50 59Z" fill="#F5F9FF"/>
<circle cx="85" cy="85" r="15" fill="#167F71"/>
<path fill-rule="evenodd" clip-rule="evenodd" d="M79.96 90.9551H88.36C89.4447 90.9528 90.32 90.0714 90.32 88.9884V84.7665C90.32 84.458 90.0686 84.2065 89.76 84.2065C89.4514 84.2065 89.2 84.458 89.2 84.7665V88.9884C89.2022 89.4543 88.8259 89.8328 88.36 89.8351H79.96C79.4941 89.8328 79.1178 89.4543 79.12 88.9884V80.6018C79.1178 80.1359 79.4941 79.7573 79.96 79.7551H84.16C84.4686 79.7551 84.72 79.5036 84.72 79.1951C84.72 78.8865 84.4686 78.6351 84.16 78.6351H79.96C78.8747 78.6373 78 79.5188 78 80.6018V88.9884C78 90.0714 78.8747 90.9528 79.96 90.9551Z" fill="white"/>
<path fill-rule="evenodd" clip-rule="evenodd" d="M84.3528 83.8195L88.1457 80.0176L88.9286 80.805L85.1335 84.6091L84.1294 84.8303L84.3528 83.8195ZM89.3357 78.8276C89.5563 78.6154 89.9063 78.6154 90.1275 78.8276C90.3443 79.0483 90.3443 79.3983 90.1275 79.6195L89.7316 80.0154L88.9398 79.2235L89.3357 78.8276ZM83.2939 83.4191L82.852 85.4423C82.8128 85.6305 82.8694 85.8254 83.0055 85.9587C83.141 86.0903 83.3331 86.1468 83.519 86.1099L85.5406 85.668C85.6431 85.6439 85.7394 85.5913 85.8161 85.5146L90.9194 80.4113C91.5757 79.755 91.5757 78.6921 90.9194 78.0358C90.2547 77.4013 89.2086 77.4013 88.5439 78.0358L83.449 83.1435C83.3728 83.2203 83.3179 83.3138 83.2939 83.4191Z" fill="white"/>
</svg>
