<svg width="22" height="22" viewBox="0 0 22 22" fill="none" xmlns="http://www.w3.org/2000/svg">
<g id="Fill 1">
<path fill-rule="evenodd" clip-rule="evenodd" d="M15.9152 16.6182C15.7835 16.6172 15.6565 16.5645 15.5627 16.4717L14.131 15.0362C13.9505 14.839 13.9572 14.5352 14.1457 14.3457C14.3342 14.1562 14.639 14.1495 14.8362 14.3292L15.9152 15.4112L18.1232 13.1992C18.2472 13.0625 18.4357 13.006 18.6145 13.0517C18.7932 13.0967 18.9317 13.2365 18.9767 13.4142C19.0217 13.5927 18.965 13.7822 18.8282 13.9052L16.2687 16.4717C16.175 16.5655 16.048 16.6182 15.9152 16.6182ZM12.462 16.675C12.0295 16.883 11.5765 17.044 11.1095 17.1553C11.0305 17.175 10.9485 17.175 10.8705 17.1553C7.95521 16.4455 6.12421 14.2402 5.26596 10.415C5.20621 10.1465 5.37621 9.88 5.64446 9.82125C5.91321 9.76175 6.17996 9.93175 6.23821 10.2005C7.33121 15.0705 9.96696 15.9005 10.9882 16.1553C11.3782 16.0625 11.756 15.9288 12.1175 15.755C12.1955 16.0743 12.3117 16.383 12.462 16.675ZM19.3332 11.2002C18.6047 10.597 17.7032 10.2393 16.759 10.18C16.9095 9.4755 17.0197 8.763 17.088 8.04525C17.1047 7.90825 17.0607 7.7715 16.968 7.67025C16.88 7.5645 16.7512 7.501 16.6135 7.495C14.464 7.40525 12.5567 6.50975 11.379 5.03525C11.2815 4.921 11.1397 4.8555 10.9895 4.8555C10.84 4.8555 10.6975 4.921 10.6007 5.03525C9.42321 6.50975 7.51671 7.40525 5.36546 7.495C5.08921 7.50575 4.87421 7.73825 4.88596 8.01475C4.89671 8.291 5.12921 8.50575 5.40546 8.495C7.62621 8.40525 9.62721 7.54 10.9895 6.1055C12.3362 7.46975 14.129 8.30375 16.0392 8.455C15.967 9.05175 15.8645 9.6445 15.7307 10.2305C13.5685 10.6015 11.9885 12.4768 11.9875 14.67C11.9875 15.0352 12.0305 15.3995 12.1175 15.755C12.1965 16.0743 12.3117 16.383 12.462 16.675C12.8927 17.543 13.593 18.2482 14.4582 18.6847C13.389 19.3252 12.214 19.7688 10.9895 19.9953C4.82646 18.7853 1.80196 13.42 2.00696 4.04525C2.00996 3.99325 2.04221 3.94725 2.08921 3.92675C2.13596 3.90525 2.19171 3.913 2.23171 3.94525C3.05396 4.4925 4.02371 4.7755 5.01096 4.755C6.87321 4.755 8.39446 3.88475 8.89371 2.54C8.99046 2.23175 9.26946 2.0155 9.59296 2H12.3927C12.714 2.0175 12.9905 2.23275 13.0862 2.54C13.3567 3.2305 13.8645 3.80075 14.5187 4.1505C15.2687 4.56075 16.1135 4.7685 16.968 4.755C17.9562 4.7755 18.926 4.4925 19.7482 3.94525C19.7717 3.92575 19.802 3.915 19.8332 3.915C19.9075 3.913 19.969 3.97075 19.9727 4.04525C20.0617 6.44725 19.847 8.8515 19.3332 11.2002ZM16.799 18.1505C16.6925 18.1642 16.5862 18.171 16.4787 18.17C16.1212 18.172 15.7657 18.1163 15.426 18.005C14.5012 17.715 13.7405 17.049 13.3302 16.17C13.177 15.8625 13.0755 15.5312 13.0305 15.1905C13.0002 15.0188 12.9845 14.8448 12.9855 14.67C12.9865 13.1418 13.9777 11.79 15.4347 11.3302H15.4407C15.7755 11.2238 16.1262 11.17 16.4777 11.17H16.5237C17.4807 11.1827 18.3897 11.59 19.0382 12.295C19.341 12.6173 19.5765 12.9963 19.7317 13.4102C19.8907 13.8115 19.972 14.2382 19.972 14.67C19.972 16.4757 18.597 17.9845 16.799 18.1505ZM20.971 4.0195C20.9582 3.40225 20.4505 2.9095 19.8322 2.915C19.595 2.916 19.3625 2.99125 19.1692 3.13C18.5147 3.555 17.7482 3.7725 16.969 3.755C15.8762 3.75 14.4485 3.34475 14.0247 2.19525C13.7872 1.4925 13.135 1.014 12.3927 1H9.59296C8.84996 1.014 8.19546 1.49125 7.95621 2.19525C7.53146 3.34475 6.10471 3.755 5.01196 3.755C4.23271 3.7715 3.46596 3.55375 2.81171 3.13C2.61846 2.99125 2.38596 2.916 2.14871 2.915C1.53046 2.9095 1.02271 3.40225 1.00996 4.0195C0.790214 14.005 4.11946 19.715 10.9017 20.9953C10.931 20.999 10.9612 21.001 10.9915 21C11.0227 21.001 11.055 20.999 11.0862 20.9953C12.7365 20.709 14.303 20.0597 15.672 19.0947C15.9387 19.1455 16.2092 19.17 16.4807 19.17C18.9622 19.1642 20.971 17.1515 20.972 14.67C20.9737 13.7423 20.6857 12.837 20.1487 12.0802C20.7667 9.8095 21.0402 7.12325 20.971 4.0195Z" fill="#202244"/>
<path d="M15.5627 16.4717L15.4211 16.613L15.4221 16.6139L15.5627 16.4717ZM14.131 15.0362L13.9833 15.1714L13.9894 15.1775L14.131 15.0362ZM14.8362 14.3292L14.978 14.1879L14.9709 14.1814L14.8362 14.3292ZM15.9152 15.4112L15.7736 15.5525L15.9151 15.6944L16.0568 15.5525L15.9152 15.4112ZM18.1232 13.1992L18.2649 13.3407L18.2714 13.3336L18.1232 13.1992ZM18.6145 13.0517L18.5649 13.2455L18.5656 13.2457L18.6145 13.0517ZM18.9767 13.4142L19.1706 13.3654L19.1706 13.3652L18.9767 13.4142ZM18.8282 13.9052L18.6943 13.7563L18.6866 13.764L18.8282 13.9052ZM16.2687 16.4717L16.4101 16.6132L16.4103 16.613L16.2687 16.4717ZM11.1095 17.1553L11.0631 16.9607L11.061 16.9612L11.1095 17.1553ZM10.8705 17.1553L10.9196 16.9614L10.9178 16.9609L10.8705 17.1553ZM5.26596 10.415L5.07074 10.4584L5.07082 10.4588L5.26596 10.415ZM5.64446 9.82125L5.68725 10.0166L5.6877 10.0165L5.64446 9.82125ZM6.23821 10.2005L6.04275 10.2429L6.04307 10.2443L6.23821 10.2005ZM10.9882 16.1553L10.9398 16.3493L10.9871 16.3611L11.0345 16.3498L10.9882 16.1553ZM12.1175 15.755L12.3117 15.7075L12.2532 15.4679L12.0308 15.5747L12.1175 15.755ZM16.759 10.18L16.5634 10.1382L16.5149 10.3651L16.7464 10.3796L16.759 10.18ZM17.088 8.04525L16.8894 8.02097L16.8889 8.02632L17.088 8.04525ZM16.968 7.67025L16.8141 7.79832L16.8205 7.80535L16.968 7.67025ZM16.6135 7.495L16.6222 7.29519L16.6218 7.29517L16.6135 7.495ZM11.379 5.03525L11.5353 4.91036L11.5311 4.90542L11.379 5.03525ZM10.6007 5.03525L10.448 4.90595L10.4444 4.91045L10.6007 5.03525ZM5.36546 7.495L5.37324 7.69485L5.3738 7.69483L5.36546 7.495ZM4.88596 8.01475L5.08581 8.00697L5.08578 8.00626L4.88596 8.01475ZM5.40546 8.495L5.41324 8.69485L5.41354 8.69484L5.40546 8.495ZM10.9895 6.1055L11.1318 5.96499L10.9867 5.81799L10.8444 5.96778L10.9895 6.1055ZM16.0392 8.455L16.2378 8.47904L16.2628 8.27208L16.055 8.25562L16.0392 8.455ZM15.7307 10.2305L15.7645 10.4276L15.896 10.4051L15.9257 10.275L15.7307 10.2305ZM11.9875 14.67L11.7875 14.6699V14.67H11.9875ZM12.1175 15.755L11.9232 15.8025L11.9233 15.803L12.1175 15.755ZM12.462 16.675L12.6411 16.5861L12.6398 16.5835L12.462 16.675ZM14.4582 18.6847L14.561 18.8563L14.8725 18.6697L14.5483 18.5062L14.4582 18.6847ZM10.9895 19.9953L10.9509 20.1915L10.9883 20.1989L11.0258 20.1919L10.9895 19.9953ZM2.00696 4.04525L1.80717 4.03372L1.80701 4.04088L2.00696 4.04525ZM2.08921 3.92675L2.16919 4.11011L2.17278 4.10846L2.08921 3.92675ZM2.23171 3.94525L2.10618 4.10095L2.1133 4.10668L2.1209 4.11175L2.23171 3.94525ZM5.01096 4.755V4.55496L5.00681 4.55504L5.01096 4.755ZM8.89371 2.54L9.08146 2.6097L9.08454 2.59989L8.89371 2.54ZM9.59296 2V1.79977L9.58339 1.80023L9.59296 2ZM12.3927 2L12.4036 1.8H12.3927V2ZM13.0862 2.54L12.8953 2.5995L12.8974 2.60631L12.9 2.61295L13.0862 2.54ZM14.5187 4.1505L14.6147 3.97503L14.613 3.97412L14.5187 4.1505ZM16.968 4.755L16.9721 4.55491L16.9648 4.55503L16.968 4.755ZM19.7482 3.94525L19.859 4.11175L19.8678 4.1059L19.8759 4.09916L19.7482 3.94525ZM19.8332 3.915V4.11507L19.8386 4.11493L19.8332 3.915ZM19.9727 4.04525L20.1726 4.03784L20.1725 4.0352L19.9727 4.04525ZM16.4787 18.17L16.4806 17.97L16.4776 17.97L16.4787 18.17ZM15.426 18.005L15.4882 17.8149L15.4858 17.8142L15.426 18.005ZM13.3302 16.17L13.5115 16.0854L13.5092 16.0808L13.3302 16.17ZM13.0305 15.1905L13.2289 15.1643L13.2274 15.1558L13.0305 15.1905ZM12.9855 14.67L13.1855 14.6711L13.1855 14.6701L12.9855 14.67ZM15.4347 11.3302V11.1302H15.4039L15.3745 11.1395L15.4347 11.3302ZM15.4407 11.3302V11.5303H15.4718L15.5013 11.5208L15.4407 11.3302ZM16.5237 11.17L16.5264 10.97H16.5237V11.17ZM19.0382 12.295L18.891 12.4304L18.8925 12.4319L19.0382 12.295ZM19.7317 13.4102L19.5444 13.4805L19.5458 13.4839L19.7317 13.4102ZM19.8322 2.915L19.8331 3.115L19.834 3.11499L19.8322 2.915ZM19.1692 3.13L19.2783 3.29792L19.2859 3.29246L19.1692 3.13ZM16.969 3.755L16.9735 3.55502L16.9699 3.555L16.969 3.755ZM14.0247 2.19525L13.8352 2.25931L13.8371 2.26443L14.0247 2.19525ZM12.3927 1L12.3965 0.8H12.3927V1ZM9.59296 1V0.799965L9.5892 0.800035L9.59296 1ZM7.95621 2.19525L8.14388 2.26459L8.14558 2.2596L7.95621 2.19525ZM5.01196 3.755V3.55496L5.00773 3.55504L5.01196 3.755ZM2.81171 3.13L2.69493 3.29265L2.70299 3.29787L2.81171 3.13ZM2.14871 2.915L2.14693 3.11499L2.14787 3.115L2.14871 2.915ZM1.00996 4.0195L1.20992 4.0239L1.20992 4.02363L1.00996 4.0195ZM10.9017 20.9953L10.8646 21.1921L10.8763 21.1936L10.9017 20.9953ZM10.9915 21L10.9979 20.7997L10.9849 20.8001L10.9915 21ZM11.0862 20.9953L11.1101 21.1941L11.1204 21.1923L11.0862 20.9953ZM15.672 19.0947L15.7093 18.8983L15.626 18.8824L15.5567 18.9313L15.672 19.0947ZM16.4807 19.17V19.37L16.4812 19.37L16.4807 19.17ZM20.972 14.67L20.772 14.6696V14.6699L20.972 14.67ZM20.1487 12.0802L19.9557 12.0277L19.9309 12.1189L19.9856 12.196L20.1487 12.0802ZM15.9167 16.4183C15.8371 16.4177 15.7601 16.3857 15.7034 16.3296L15.4221 16.6139C15.5529 16.7433 15.7298 16.8168 15.9137 16.8182L15.9167 16.4183ZM15.7043 16.3305L14.2726 14.895L13.9894 15.1775L15.4211 16.613L15.7043 16.3305ZM14.2785 14.9012C14.1703 14.783 14.1741 14.6008 14.2875 14.4868L14.0039 14.2047C13.7403 14.4697 13.7306 14.895 13.9834 15.1713L14.2785 14.9012ZM14.2875 14.4868C14.4002 14.3735 14.5831 14.3691 14.7015 14.4771L14.9709 14.1814C14.6949 13.9299 14.2682 13.939 14.0039 14.2047L14.2875 14.4868ZM14.6946 14.4705L15.7736 15.5525L16.0568 15.27L14.9778 14.188L14.6946 14.4705ZM16.0568 15.5525L18.2648 13.3405L17.9817 13.058L15.7737 15.27L16.0568 15.5525ZM18.2714 13.3336C18.3455 13.2518 18.4579 13.2181 18.5649 13.2455L18.6641 12.858C18.4136 12.7939 18.1489 12.8732 17.9751 13.0649L18.2714 13.3336ZM18.5656 13.2457C18.6724 13.2726 18.7557 13.3562 18.7828 13.4633L19.1706 13.3652C19.1077 13.1168 18.914 12.9209 18.6633 12.8578L18.5656 13.2457ZM18.7828 13.4631C18.8099 13.5705 18.7754 13.6837 18.6945 13.7565L18.962 14.0539C19.1545 13.8808 19.2336 13.615 19.1706 13.3654L18.7828 13.4631ZM18.6866 13.764L16.1271 16.3305L16.4103 16.613L18.9698 14.0465L18.6866 13.764ZM16.1273 16.3303C16.071 16.3867 15.9948 16.4183 15.9152 16.4183V16.8182C16.1011 16.8182 16.279 16.7443 16.4101 16.6132L16.1273 16.3303ZM12.3753 16.4948C11.9556 16.6966 11.5161 16.8528 11.0631 16.9607L11.1558 17.3498C11.6368 17.2352 12.1033 17.0694 12.5486 16.8552L12.3753 16.4948ZM11.061 16.9612C11.0136 16.9731 10.9651 16.9729 10.9196 16.9614L10.8214 17.3491C10.9318 17.3771 11.0473 17.3769 11.158 17.3493L11.061 16.9612ZM10.9178 16.9609C9.50015 16.6158 8.35153 15.9094 7.45064 14.8256C6.54738 13.7389 5.88567 12.2635 5.46111 10.3712L5.07082 10.4588C5.5045 12.3918 6.18742 13.9316 7.14303 15.0813C8.10102 16.2338 9.32553 16.985 10.8232 17.3496L10.9178 16.9609ZM5.46119 10.3716C5.42545 10.2109 5.52734 10.0516 5.68725 10.0166L5.60168 9.62588C5.22509 9.70836 4.98698 10.0821 5.07074 10.4584L5.46119 10.3716ZM5.6877 10.0165C5.84887 9.98084 6.0081 10.083 6.04275 10.2429L6.43368 10.1581C6.35182 9.78049 5.97756 9.54266 5.60123 9.62598L5.6877 10.0165ZM6.04307 10.2443C6.59682 12.7116 7.54637 14.1754 8.50482 15.0559C9.46309 15.9362 10.4141 16.2182 10.9398 16.3493L11.0366 15.9612C10.5411 15.8376 9.66359 15.5772 8.77542 14.7613C7.88743 13.9456 6.97261 12.5594 6.43336 10.1567L6.04307 10.2443ZM11.0345 16.3498C11.4384 16.2538 11.8296 16.1152 12.2041 15.9353L12.0308 15.5747C11.6823 15.7423 11.3181 15.8712 10.9419 15.9607L11.0345 16.3498ZM11.9232 15.8025C12.005 16.1373 12.1268 16.4608 12.2841 16.7665L12.6398 16.5835C12.4966 16.3052 12.3859 16.0112 12.3117 15.7075L11.9232 15.8025ZM19.4608 11.0462C18.6998 10.416 17.758 10.0423 16.7715 9.98039L16.7464 10.3796C17.6484 10.4362 18.5097 10.778 19.2057 11.3543L19.4608 11.0462ZM16.9546 10.2218C17.1066 9.50985 17.2181 8.78972 17.2871 8.06418L16.8889 8.02632C16.8214 8.73628 16.7123 9.44115 16.5634 10.1382L16.9546 10.2218ZM17.2865 8.06952C17.3103 7.87445 17.2476 7.67948 17.1154 7.53515L16.8205 7.80535C16.8738 7.86352 16.8991 7.94205 16.8894 8.02098L17.2865 8.06952ZM17.1217 7.54232C16.9974 7.39296 16.8159 7.30363 16.6222 7.29519L16.6048 7.69481C16.6866 7.69837 16.7625 7.73604 16.8142 7.79818L17.1217 7.54232ZM16.6218 7.29517C14.5211 7.20746 12.6715 6.33304 11.5352 4.91043L11.2227 5.16007C12.4419 6.68646 14.4069 7.60304 16.6051 7.69483L16.6218 7.29517ZM11.5311 4.90542C11.3957 4.74672 11.1983 4.6555 10.9895 4.6555V5.0555C11.0811 5.0555 11.1673 5.09528 11.2268 5.16508L11.5311 4.90542ZM10.9895 4.6555C10.7816 4.6555 10.5831 4.74652 10.4481 4.906L10.7533 5.1645C10.8118 5.09548 10.8983 5.0555 10.9895 5.0555V4.6555ZM10.4444 4.91045C9.30838 6.33304 7.45963 7.20746 5.35713 7.29517L5.3738 7.69483C7.5738 7.60304 9.53804 6.68646 10.757 5.16005L10.4444 4.91045ZM5.35769 7.29515C4.97108 7.3102 4.66968 7.63581 4.68614 8.02324L5.08578 8.00626C5.07875 7.84069 5.20735 7.7013 5.37324 7.69485L5.35769 7.29515ZM4.68611 8.02253C4.70117 8.40933 5.0268 8.70989 5.41324 8.69485L5.39769 8.29515C5.23163 8.30161 5.09226 8.17267 5.08581 8.00697L4.68611 8.02253ZM5.41354 8.69484C7.68025 8.60323 9.73246 7.71962 11.1345 6.24322L10.8444 5.96778C9.52197 7.36038 7.57218 8.20727 5.39739 8.29516L5.41354 8.69484ZM10.8471 6.24601C12.2276 7.64443 14.0653 8.49933 16.0234 8.65438L16.055 8.25562C14.1926 8.10817 12.4448 7.29507 11.1318 5.96499L10.8471 6.24601ZM15.8407 8.43096C15.7692 9.02099 15.6679 9.60691 15.5357 10.186L15.9257 10.275C16.061 9.68209 16.1647 9.08251 16.2378 8.47904L15.8407 8.43096ZM15.6969 10.0334C13.4386 10.4209 11.7885 12.3794 11.7875 14.6699L12.1875 14.6701C12.1884 12.5741 13.6983 10.7821 15.7645 10.4276L15.6969 10.0334ZM11.7875 14.67C11.7875 15.0509 11.8323 15.4312 11.9232 15.8025L12.3117 15.7075C12.2286 15.3678 12.1875 15.0196 12.1875 14.67H11.7875ZM11.9233 15.803C12.006 16.1371 12.1267 16.4605 12.2841 16.7665L12.6398 16.5835C12.4968 16.3055 12.3869 16.0114 12.3116 15.707L11.9233 15.803ZM12.2828 16.7639C12.7328 17.6706 13.4642 18.4073 14.3681 18.8633L14.5483 18.5062C13.7217 18.0892 13.0527 17.4154 12.6411 16.5861L12.2828 16.7639ZM14.3554 18.5132C13.3067 19.1414 12.1542 19.5764 10.9531 19.7986L11.0258 20.1919C12.2738 19.9611 13.4712 19.5091 14.561 18.8563L14.3554 18.5132ZM11.028 19.799C8.00234 19.205 5.75586 17.5959 4.28447 14.9839C2.80814 12.363 2.10482 8.71855 2.20692 4.04962L1.80701 4.04088C1.70411 8.7467 2.41054 12.4722 3.93596 15.1802C5.46632 17.8969 7.81358 19.5755 10.9509 20.1915L11.028 19.799ZM2.20663 4.05677C2.2053 4.07986 2.1914 4.10037 2.16917 4.11007L2.00925 3.74343C1.89302 3.79413 1.81463 3.90664 1.8073 4.03373L2.20663 4.05677ZM2.17278 4.10846C2.14831 4.11971 2.12335 4.11479 2.10618 4.10095L2.35725 3.78955C2.26008 3.71121 2.12362 3.69079 2.00565 3.74504L2.17278 4.10846ZM2.1209 4.11175C2.97707 4.68157 3.98692 4.97631 5.01512 4.95496L5.00681 4.55504C4.06051 4.57469 3.13086 4.30343 2.34253 3.77875L2.1209 4.11175ZM5.01096 4.955C6.92614 4.955 8.54347 4.05804 9.08121 2.60961L8.70622 2.47039C8.24546 3.71146 6.82028 4.555 5.01096 4.555V4.955ZM9.08454 2.59989C9.15625 2.3714 9.36307 2.21124 9.60254 2.19977L9.58339 1.80023C9.17586 1.81976 8.82468 2.0921 8.70289 2.48011L9.08454 2.59989ZM9.59296 2.2H12.3927V1.8H9.59296V2.2ZM12.3818 2.1997C12.6197 2.21266 12.8244 2.37201 12.8953 2.5995L13.2772 2.4805C13.1566 2.09349 12.8083 1.82234 12.4036 1.8003L12.3818 2.1997ZM12.9 2.61295C13.1879 3.3479 13.7283 3.95476 14.4244 4.32688L14.613 3.97412C14.0006 3.64674 13.5255 3.1131 13.2724 2.46705L12.9 2.61295ZM14.4227 4.32597C15.2032 4.75291 16.0822 4.96902 16.9711 4.95498L16.9648 4.55503C16.1447 4.56798 15.3342 4.36859 14.6147 3.97503L14.4227 4.32597ZM16.9638 4.95496C17.993 4.97631 19.0028 4.68158 19.859 4.11175L19.6374 3.77875C18.8491 4.30342 17.9194 4.57469 16.9721 4.55504L16.9638 4.95496ZM19.8759 4.09916C19.8626 4.11026 19.8473 4.115 19.8332 4.115V3.715C19.7566 3.715 19.6809 3.74124 19.6205 3.79134L19.8759 4.09916ZM19.8386 4.11493C19.8023 4.1159 19.7746 4.08736 19.773 4.0553L20.1725 4.0352C20.1633 3.85414 20.0126 3.7101 19.8278 3.71507L19.8386 4.11493ZM19.7729 4.05266C19.8612 6.43783 19.648 8.82523 19.1378 11.1575L19.5286 11.243C20.0459 8.87777 20.2622 6.45667 20.1726 4.03784L19.7729 4.05266ZM16.7734 17.9521C16.6754 17.9648 16.5784 17.9709 16.4806 17.97L16.4769 18.37C16.594 18.3711 16.7095 18.3637 16.8246 18.3489L16.7734 17.9521ZM16.4776 17.97C16.1416 17.9719 15.8075 17.9195 15.4882 17.8149L15.3637 18.1951C15.7239 18.313 16.1008 18.3721 16.4798 18.37L16.4776 17.97ZM15.4858 17.8142C14.6147 17.541 13.898 16.9136 13.5114 16.0854L13.149 16.2546C13.583 17.1844 14.3877 17.889 15.3661 18.1958L15.4858 17.8142ZM13.5092 16.0808C13.3658 15.793 13.2708 15.4831 13.2287 15.1643L12.8322 15.2167C12.8801 15.5794 12.9881 15.932 13.1512 16.2592L13.5092 16.0808ZM13.2274 15.1558C13.1991 14.9951 13.1845 14.8331 13.1855 14.6711L12.7855 14.6689C12.7844 14.8564 12.8013 15.0424 12.8335 15.2252L13.2274 15.1558ZM13.1855 14.6701C13.1864 13.2291 14.1211 11.9545 15.4949 11.521L15.3745 11.1395C13.8343 11.6255 12.7865 13.0544 12.7855 14.6699L13.1855 14.6701ZM15.4347 11.5303H15.4407V11.1302H15.4347V11.5303ZM15.5013 11.5208C15.8162 11.4207 16.1465 11.37 16.4777 11.37V10.97C16.1059 10.97 15.7347 11.0268 15.3801 11.1397L15.5013 11.5208ZM16.4777 11.37H16.5237V10.97H16.4777V11.37ZM16.521 11.37C17.4229 11.382 18.2796 11.7658 18.891 12.4304L19.1854 12.1596C18.4998 11.4142 17.5386 10.9835 16.5264 10.97L16.521 11.37ZM18.8925 12.4319C19.177 12.7349 19.3985 13.0912 19.5444 13.4805L19.919 13.34C19.7545 12.9013 19.5049 12.4996 19.184 12.1581L18.8925 12.4319ZM19.5458 13.4839C19.6955 13.8617 19.772 14.2634 19.772 14.67H20.172C20.172 14.2131 20.086 13.7613 19.9176 13.3366L19.5458 13.4839ZM19.772 14.67C19.772 16.3725 18.4756 17.7949 16.7806 17.9513L16.8174 18.3497C18.7183 18.1741 20.172 16.579 20.172 14.67H19.772ZM21.1709 4.01537C21.1559 3.28845 20.5581 2.70853 19.8304 2.71501L19.834 3.11499C20.3429 3.11047 20.7605 3.51605 20.771 4.02363L21.1709 4.01537ZM19.8314 2.715C19.5526 2.71618 19.2796 2.80454 19.0526 2.96754L19.2859 3.29246C19.4453 3.17796 19.6374 3.11582 19.8331 3.115L19.8314 2.715ZM19.0603 2.96226C18.4395 3.36537 17.7125 3.57165 16.9735 3.55505L16.9645 3.95495C17.7839 3.97335 18.5899 3.74463 19.2781 3.29774L19.0603 2.96226ZM16.9699 3.555C16.4448 3.5526 15.8435 3.4536 15.328 3.22189C14.8132 2.99055 14.4 2.63509 14.2124 2.12607L13.8371 2.26443C14.0732 2.90491 14.5857 3.32683 15.164 3.58673C15.7414 3.84627 16.4004 3.9524 16.968 3.955L16.9699 3.555ZM14.2142 2.13122C13.9497 1.34866 13.2233 0.81563 12.3965 0.800036L12.3889 1.19996C13.0467 1.21237 13.6247 1.63634 13.8352 2.25928L14.2142 2.13122ZM12.3927 0.8H9.59296V1.2H12.3927V0.8ZM9.5892 0.800035C8.76209 0.81562 8.03327 1.34696 7.76685 2.1309L8.14558 2.2596C8.35766 1.63554 8.93784 1.21238 9.59673 1.19996L9.5892 0.800035ZM7.76861 2.12593C7.58041 2.63526 7.16691 2.99196 6.65241 3.22385C6.13709 3.4561 5.53636 3.555 5.01196 3.555V3.955C5.58032 3.955 6.23934 3.84877 6.81677 3.58852C7.39501 3.32791 7.90727 2.90474 8.14382 2.26457L7.76861 2.12593ZM5.00773 3.55504C4.26849 3.5707 3.54109 3.36412 2.92044 2.96213L2.70299 3.29787C3.39084 3.74338 4.19694 3.9723 5.0162 3.95496L5.00773 3.55504ZM2.92836 2.96754C2.70134 2.80454 2.42837 2.71618 2.14956 2.715L2.14787 3.115C2.34356 3.11582 2.53559 3.17796 2.69507 3.29246L2.92836 2.96754ZM2.15049 2.71501C1.42286 2.70853 0.825022 3.28845 0.810006 4.01537L1.20992 4.02363C1.22041 3.51605 1.63807 3.11047 2.14693 3.11499L2.15049 2.71501ZM0.810012 4.0151C0.699714 9.02709 1.47887 12.9926 3.15729 15.8725C4.84068 18.7611 7.41963 20.5415 10.8646 21.1918L10.9388 20.7987C7.60155 20.1688 5.12475 18.4541 3.50289 15.6711C1.87606 12.8797 1.10046 8.99741 1.20992 4.0239L0.810012 4.0151ZM10.8763 21.1936C10.9136 21.1984 10.9549 21.2013 10.9981 21.1999L10.9849 20.8001C10.9676 20.8007 10.9483 20.7996 10.9271 20.7969L10.8763 21.1936ZM10.9851 21.1999C11.0288 21.2013 11.0714 21.1985 11.11 21.1938L11.0624 20.7967C11.0385 20.7995 11.0167 20.8007 10.9979 20.8001L10.9851 21.1999ZM11.1204 21.1923C12.7998 20.901 14.394 20.2403 15.7872 19.2582L15.5567 18.9313C14.2119 19.8792 12.6731 20.517 11.052 20.7982L11.1204 21.1923ZM15.6346 19.2912C15.9141 19.3444 16.1972 19.37 16.4807 19.37V18.97C16.2213 18.97 15.9633 18.9466 15.7093 18.8983L15.6346 19.2912ZM16.4812 19.37C19.0729 19.364 21.1709 17.2618 21.172 14.6701L20.772 14.6699C20.771 17.0412 18.8515 18.9645 16.4803 18.97L16.4812 19.37ZM21.172 14.6704C21.1738 13.701 20.8729 12.7551 20.3118 11.9645L19.9856 12.196C20.4986 12.9189 20.7736 13.7835 20.772 14.6696L21.172 14.6704ZM20.3417 12.1328C20.9661 9.8386 21.2405 7.13223 21.1709 4.01504L20.771 4.02396C20.84 7.11427 20.5674 9.7804 19.9557 12.0277L20.3417 12.1328Z" fill="#202244"/>
</g>
</svg>
