<svg width="19" height="18" viewBox="0 0 19 18" fill="none" xmlns="http://www.w3.org/2000/svg">
<path id="Fill 1" fill-rule="evenodd" clip-rule="evenodd" d="M15.6561 3.21268L9.89311 16.6635C9.83911 16.6989 9.78271 16.6803 9.72391 16.6635L8.65051 10.2231L15.6561 3.21268ZM14.8101 2.36428L7.79971 9.37228L1.27291 8.28268C1.29631 8.22148 1.31491 8.17468 1.33591 8.13688L14.8101 2.36428ZM10.8513 17.4159L17.9907 0.822276C18.0657 0.597276 18.0093 0.348876 17.8407 0.182676C17.6739 0.0134757 17.4255 -0.0423243 17.2005 0.0326757L0.698712 7.10608C0.185112 7.32388 -0.0350877 7.88848 0.00451226 8.36908C0.0423123 8.81428 0.295512 9.30928 0.834312 9.42868L7.48831 10.5351L8.67871 17.3505C9.31831 18.0651 10.2327 18.0651 10.8513 17.4159Z" fill="#1D1D1B"/>
</svg>
