<svg width="102" height="14" viewBox="0 0 102 14" fill="none" xmlns="http://www.w3.org/2000/svg">
<rect width="102" height="14" fill="#353535"/>
<g id="32_REVIEWS" clip-path="url(#clip0_0_1)">
<rect width="428" height="926" transform="translate(-163 -150)" fill="white"/>
<g id="MAIN BACKGROUND">
<rect id="MAIN BACKGROUND_2" x="-163" y="-150" width="428" height="926" fill="#F5F9FF"/>
</g>
<g id="Star">
<g id="01">
<path id="Fill 1" fill-rule="evenodd" clip-rule="evenodd" d="M7.68634 0.435094L9.24524 3.56619C9.36004 3.79299 9.57844 3.95189 9.83254 3.98969L13.3304 4.49859C13.5348 4.52869 13.721 4.63509 13.8442 4.79889C13.9702 4.96339 14.022 5.16849 13.9919 5.37079C13.9674 5.53739 13.8876 5.69349 13.7679 5.81109L11.2325 8.26669C11.047 8.44169 10.9623 8.69299 11.0057 8.94149L11.6322 12.3981C11.7001 12.8111 11.4243 13.2017 11.0057 13.2864C10.8363 13.3137 10.6613 13.2864 10.508 13.2073L7.38534 11.5805C7.15294 11.4629 6.87994 11.4629 6.65034 11.5805L3.52764 13.2073C3.14124 13.4124 2.66104 13.2703 2.45244 12.893C2.37404 12.7425 2.34674 12.5703 2.37124 12.4037L2.99634 8.94709C3.04114 8.70139 2.95644 8.44659 2.77024 8.27159L0.234841 5.81879C0.0878414 5.67389 0.00244141 5.47719 0.00244141 5.27209C0.00244141 5.06699 0.0878414 4.87029 0.234841 4.72539C0.355241 4.60499 0.513441 4.52589 0.686341 4.50419L4.18424 3.99529C4.43764 3.95679 4.65604 3.80139 4.76874 3.57179L6.27514 0.435094C6.40604 0.169794 6.68254 0.000394101 6.98634 0.0059941H7.07944C7.34194 0.0388941 7.57154 0.199894 7.68634 0.435094Z" fill="#FF9C07"/>
<path id="Fill 4" fill-rule="evenodd" clip-rule="evenodd" d="M7.00542 11.4874C6.86823 11.4874 6.74012 11.5336 6.61692 11.5938L3.50542 13.2157C3.13092 13.404 2.65773 13.2535 2.45263 12.893C2.37353 12.7453 2.34342 12.5759 2.37072 12.4086L2.99653 8.96106C3.03783 8.70906 2.95312 8.45776 2.76973 8.27996L0.229425 5.82436C-0.076475 5.52406 -0.076475 5.03406 0.229425 4.73096C0.349825 4.61336 0.505925 4.53636 0.672525 4.51186L4.18372 3.99526C4.45112 3.95676 4.64573 3.80696 4.76823 3.57176L6.29423 0.399362C6.40903 0.142462 6.80032 -0.0353384 7.01102 0.00596158C7.00542 0.216662 7.00542 11.3481 7.00542 11.4874Z" fill="#E78B01"/>
</g>
<g id="02">
<path id="Fill 1_2" fill-rule="evenodd" clip-rule="evenodd" d="M29.6863 0.435094L31.2452 3.56619C31.36 3.79299 31.5784 3.95189 31.8325 3.98969L35.3304 4.49859C35.5348 4.52869 35.721 4.63509 35.8442 4.79889C35.9702 4.96339 36.022 5.16849 35.9919 5.37079C35.9674 5.53739 35.8876 5.69349 35.7679 5.81109L33.2325 8.26669C33.047 8.44169 32.9623 8.69299 33.0057 8.94149L33.6322 12.3981C33.7001 12.8111 33.4243 13.2017 33.0057 13.2864C32.8363 13.3137 32.6613 13.2864 32.508 13.2073L29.3853 11.5805C29.1529 11.4629 28.8799 11.4629 28.6503 11.5805L25.5276 13.2073C25.1412 13.4124 24.661 13.2703 24.4524 12.893C24.374 12.7425 24.3467 12.5703 24.3712 12.4037L24.9963 8.94709C25.0411 8.70139 24.9564 8.44659 24.7702 8.27159L22.2348 5.81879C22.0878 5.67389 22.0024 5.47719 22.0024 5.27209C22.0024 5.06699 22.0878 4.87029 22.2348 4.72539C22.3552 4.60499 22.5134 4.52589 22.6863 4.50419L26.1842 3.99529C26.4376 3.95679 26.656 3.80139 26.7687 3.57179L28.2751 0.435094C28.406 0.169794 28.6825 0.000394101 28.9863 0.0059941H29.0794C29.3419 0.0388941 29.5715 0.199894 29.6863 0.435094Z" fill="#FF9C07"/>
<path id="Fill 4_2" fill-rule="evenodd" clip-rule="evenodd" d="M29.0054 11.4874C28.8682 11.4874 28.7401 11.5336 28.6169 11.5938L25.5054 13.2157C25.1309 13.404 24.6577 13.2535 24.4526 12.893C24.3735 12.7453 24.3434 12.5759 24.3707 12.4086L24.9965 8.96106C25.0378 8.70906 24.9531 8.45776 24.7697 8.27996L22.2294 5.82436C21.9235 5.52406 21.9235 5.03406 22.2294 4.73096C22.3498 4.61336 22.5059 4.53636 22.6725 4.51186L26.1837 3.99526C26.4511 3.95676 26.6457 3.80696 26.7682 3.57176L28.2942 0.399362C28.409 0.142462 28.8003 -0.0353384 29.011 0.00596158C29.0054 0.216662 29.0054 11.3481 29.0054 11.4874Z" fill="#E78B01"/>
</g>
<g id="03">
<path id="Fill 1_3" fill-rule="evenodd" clip-rule="evenodd" d="M51.6863 0.435094L53.2452 3.56619C53.36 3.79299 53.5784 3.95189 53.8325 3.98969L57.3304 4.49859C57.5348 4.52869 57.721 4.63509 57.8442 4.79889C57.9702 4.96339 58.022 5.16849 57.9919 5.37079C57.9674 5.53739 57.8876 5.69349 57.7679 5.81109L55.2325 8.26669C55.047 8.44169 54.9623 8.69299 55.0057 8.94149L55.6322 12.3981C55.7001 12.8111 55.4243 13.2017 55.0057 13.2864C54.8363 13.3137 54.6613 13.2864 54.508 13.2073L51.3853 11.5805C51.1529 11.4629 50.8799 11.4629 50.6503 11.5805L47.5276 13.2073C47.1412 13.4124 46.661 13.2703 46.4524 12.893C46.374 12.7425 46.3467 12.5703 46.3712 12.4037L46.9963 8.94709C47.0411 8.70139 46.9564 8.44659 46.7702 8.27159L44.2348 5.81879C44.0878 5.67389 44.0024 5.47719 44.0024 5.27209C44.0024 5.06699 44.0878 4.87029 44.2348 4.72539C44.3552 4.60499 44.5134 4.52589 44.6863 4.50419L48.1842 3.99529C48.4376 3.95679 48.656 3.80139 48.7687 3.57179L50.2751 0.435094C50.406 0.169794 50.6825 0.000394101 50.9863 0.0059941H51.0794C51.3419 0.0388941 51.5715 0.199894 51.6863 0.435094Z" fill="#FF9C07"/>
<path id="Fill 4_3" fill-rule="evenodd" clip-rule="evenodd" d="M51.0054 11.4874C50.8682 11.4874 50.7401 11.5336 50.6169 11.5938L47.5054 13.2157C47.1309 13.404 46.6577 13.2535 46.4526 12.893C46.3735 12.7453 46.3434 12.5759 46.3707 12.4086L46.9965 8.96106C47.0378 8.70906 46.9531 8.45776 46.7697 8.27996L44.2294 5.82436C43.9235 5.52406 43.9235 5.03406 44.2294 4.73096C44.3498 4.61336 44.5059 4.53636 44.6725 4.51186L48.1837 3.99526C48.4511 3.95676 48.6457 3.80696 48.7682 3.57176L50.2942 0.399362C50.409 0.142462 50.8003 -0.0353384 51.011 0.00596158C51.0054 0.216662 51.0054 11.3481 51.0054 11.4874Z" fill="#E78B01"/>
</g>
<g id="04">
<path id="Fill 1_4" fill-rule="evenodd" clip-rule="evenodd" d="M73.6863 0.435094L75.2452 3.56619C75.36 3.79299 75.5784 3.95189 75.8325 3.98969L79.3304 4.49859C79.5348 4.52869 79.721 4.63509 79.8442 4.79889C79.9702 4.96339 80.022 5.16849 79.9919 5.37079C79.9674 5.53739 79.8876 5.69349 79.7679 5.81109L77.2325 8.26669C77.047 8.44169 76.9623 8.69299 77.0057 8.94149L77.6322 12.3981C77.7001 12.8111 77.4243 13.2017 77.0057 13.2864C76.8363 13.3137 76.6613 13.2864 76.508 13.2073L73.3853 11.5805C73.1529 11.4629 72.8799 11.4629 72.6503 11.5805L69.5276 13.2073C69.1412 13.4124 68.661 13.2703 68.4524 12.893C68.374 12.7425 68.3467 12.5703 68.3712 12.4037L68.9963 8.94709C69.0411 8.70139 68.9564 8.44659 68.7702 8.27159L66.2348 5.81879C66.0878 5.67389 66.0024 5.47719 66.0024 5.27209C66.0024 5.06699 66.0878 4.87029 66.2348 4.72539C66.3552 4.60499 66.5134 4.52589 66.6863 4.50419L70.1842 3.99529C70.4376 3.95679 70.656 3.80139 70.7687 3.57179L72.2751 0.435094C72.406 0.169794 72.6825 0.000394101 72.9863 0.0059941H73.0794C73.3419 0.0388941 73.5715 0.199894 73.6863 0.435094Z" fill="#FF9C07"/>
<path id="Fill 4_4" fill-rule="evenodd" clip-rule="evenodd" d="M73.0054 11.4874C72.8682 11.4874 72.7401 11.5336 72.6169 11.5938L69.5054 13.2157C69.1309 13.404 68.6577 13.2535 68.4526 12.893C68.3735 12.7453 68.3434 12.5759 68.3707 12.4086L68.9965 8.96106C69.0378 8.70906 68.9531 8.45776 68.7697 8.27996L66.2294 5.82436C65.9235 5.52406 65.9235 5.03406 66.2294 4.73096C66.3498 4.61336 66.5059 4.53636 66.6725 4.51186L70.1837 3.99526C70.4511 3.95676 70.6457 3.80696 70.7682 3.57176L72.2942 0.399362C72.409 0.142462 72.8003 -0.0353384 73.011 0.00596158C73.0054 0.216662 73.0054 11.3481 73.0054 11.4874Z" fill="#E78B01"/>
</g>
<g id="05">
<path id="Fill 1_5" fill-rule="evenodd" clip-rule="evenodd" d="M95.6863 0.435094L97.2452 3.56619C97.36 3.79299 97.5784 3.95189 97.8325 3.98969L101.33 4.49859C101.535 4.52869 101.721 4.63509 101.844 4.79889C101.97 4.96339 102.022 5.16849 101.992 5.37079C101.967 5.53739 101.888 5.69349 101.768 5.81109L99.2325 8.26669C99.047 8.44169 98.9623 8.69299 99.0057 8.94149L99.6322 12.3981C99.7001 12.8111 99.4243 13.2017 99.0057 13.2864C98.8363 13.3137 98.6613 13.2864 98.508 13.2073L95.3853 11.5805C95.1529 11.4629 94.8799 11.4629 94.6503 11.5805L91.5276 13.2073C91.1412 13.4124 90.661 13.2703 90.4524 12.893C90.374 12.7425 90.3467 12.5703 90.3712 12.4037L90.9963 8.94709C91.0411 8.70139 90.9564 8.44659 90.7702 8.27159L88.2348 5.81879C88.0878 5.67389 88.0024 5.47719 88.0024 5.27209C88.0024 5.06699 88.0878 4.87029 88.2348 4.72539C88.3552 4.60499 88.5134 4.52589 88.6863 4.50419L92.1842 3.99529C92.4376 3.95679 92.656 3.80139 92.7687 3.57179L94.2751 0.435094C94.406 0.169794 94.6825 0.000394101 94.9863 0.0059941H95.0794C95.3419 0.0388941 95.5715 0.199894 95.6863 0.435094Z" fill="#FAC840"/>
<path id="Fill 4_5" fill-rule="evenodd" clip-rule="evenodd" d="M95.0054 11.4874C94.8682 11.4874 94.7401 11.5336 94.6169 11.5938L91.5054 13.2157C91.1309 13.404 90.6577 13.2535 90.4526 12.893C90.3735 12.7453 90.3434 12.5759 90.3707 12.4086L90.9965 8.96106C91.0378 8.70906 90.9531 8.45776 90.7697 8.27996L88.2294 5.82436C87.9235 5.52406 87.9235 5.03406 88.2294 4.73096C88.3498 4.61336 88.5059 4.53636 88.6725 4.51186L92.1837 3.99526C92.4511 3.95676 92.6457 3.80696 92.7682 3.57176L94.2942 0.399362C94.409 0.142462 94.8003 -0.0353384 95.011 0.00596158C95.0054 0.216662 95.0054 11.3481 95.0054 11.4874Z" fill="#FF9C07"/>
</g>
</g>
</g>
<defs>
<clipPath id="clip0_0_1">
<rect width="428" height="926" fill="white" transform="translate(-163 -150)"/>
</clipPath>
</defs>
</svg>
