<svg width="132" height="119" viewBox="0 0 132 119" fill="none" xmlns="http://www.w3.org/2000/svg">
<g id="ICON">
<path id="Fill 1" fill-rule="evenodd" clip-rule="evenodd" d="M112.111 0.0908203L106.01 11.5908L92.352 13.6002L102.219 23.2225L99.8814 36.7235L112.094 30.3442L124.305 36.7235L121.961 23.2225L131.596 13.6002L118.217 11.5908L112.111 0.0908203ZM19.718 0.0908203L13.6063 11.5908L0.000732422 13.6002L9.82591 23.2225L7.4841 36.7235L19.6908 30.3442L31.9017 36.7235L29.5599 23.2225L39.475 13.6002L25.8193 11.5908L19.718 0.0908203Z" fill="#FFB62A"/>
<path id="Fill 2" fill-rule="evenodd" clip-rule="evenodd" d="M19.7178 0.0908203V30.3442L31.9287 36.7235L29.5848 23.2225L39.4748 13.6002L25.819 11.5908L19.7178 0.0908203Z" fill="#FFB62A"/>
<g id="Group 21">
<path id="Fill 3" fill-rule="evenodd" clip-rule="evenodd" d="M84.4089 51.5681C82.5961 51.5681 81.1659 50.1483 81.1659 48.3272V45.0925H48.6585V48.3272C48.6585 50.1483 47.2409 51.5681 45.4197 51.5681H35.6719V80.2365C35.6719 97.4635 47.3601 112.541 64.1291 116.763L64.9049 116.951L65.6743 116.763C82.4497 112.541 94.1358 97.4468 94.1358 80.2365V51.5681H84.4089Z" fill="#F5F5F5"/>
<path id="Fill 6" fill-rule="evenodd" clip-rule="evenodd" d="M94.1526 51.568V80.2365C94.1526 97.4635 82.4645 112.541 65.6975 116.763L64.9238 116.951V45.0674H81.166V48.3104C81.166 50.1316 82.5962 51.5534 84.409 51.5534H94.1526V51.568Z" fill="#E7E7F2"/>
<path id="Fill 9" fill-rule="evenodd" clip-rule="evenodd" d="M84.4089 58.0706C80.1873 58.0706 76.5513 55.3336 75.2528 51.5679H54.5967C53.2334 55.457 49.5597 58.0706 45.4323 58.0706H42.1997V80.2531C42.1997 94.2287 51.4771 106.521 64.9446 110.302C78.3892 106.536 87.6916 94.2287 87.6916 80.2531V58.0706H84.4089Z" fill="#26BFA6"/>
<path id="Fill 11" fill-rule="evenodd" clip-rule="evenodd" d="M87.6512 58.0706V80.2531C87.6512 94.2287 78.3654 106.521 64.9062 110.302V51.5679H75.2291C76.5296 55.3336 80.172 58.0706 84.3914 58.0706H87.6512Z" fill="#26BFA6"/>
<path id="Fill 13" fill-rule="evenodd" clip-rule="evenodd" d="M85.6621 13.5999L72.0063 11.5906L65.9051 0.0905762L59.7954 11.5906L46.1501 13.5999L56.013 23.2223L53.6691 36.7233L65.88 30.3439L78.0909 36.7233L75.7553 23.2223L85.6621 13.5999Z" fill="#FFB62A"/>
<path id="Fill 15" fill-rule="evenodd" clip-rule="evenodd" d="M76.927 76.8081L64.9043 88.8935L61.6634 92.1386L52.8816 83.292L57.4419 78.7359L61.6634 82.8905L64.9043 79.6475L72.3689 72.2478L76.927 76.8081Z" fill="#F5F5F5"/>
<path id="Fill 17" fill-rule="evenodd" clip-rule="evenodd" d="M78.1172 36.7235L65.9062 30.3442V0.0908203L72.0054 11.5908L85.6612 13.6002L75.7963 23.2225L78.1172 36.7235Z" fill="#FFB62A"/>
<path id="Fill 19" fill-rule="evenodd" clip-rule="evenodd" d="M76.927 76.808L64.9043 88.8934V79.6746L72.3688 72.2749L76.927 76.808Z" fill="#E7E7F2"/>
</g>
</g>
</svg>
