<svg width="22" height="14" viewBox="0 0 22 14" fill="none" xmlns="http://www.w3.org/2000/svg">
<g id="ICON">
<path id="Fill 1" fill-rule="evenodd" clip-rule="evenodd" d="M1.28606 7.04606C1.96348 8.22161 5.08097 12.8276 10.816 12.8276C16.551 12.8276 19.669 8.22161 20.3464 7.04606C19.669 5.87097 16.551 1.26497 10.816 1.26497C5.08097 1.26497 1.96348 5.87097 1.28606 7.04606ZM10.816 14C3.50032 14 0.203095 7.54419 0.0671591 7.27187C-0.0227119 7.09258 -0.0227119 6.91013 0.0671591 6.73084C0.203095 6.45852 3.50032 0 10.816 0C18.1317 0 21.4289 6.45852 21.5653 6.73084C21.6547 6.91013 21.6547 7.09258 21.5653 7.27187C21.4289 7.58755 18.1317 14 10.816 14Z" fill="#202244"/>
<path id="Fill 4" fill-rule="evenodd" clip-rule="evenodd" d="M10.816 2.53008C8.33211 2.53008 6.29985 4.56234 6.29985 7.04621C6.29985 9.53008 8.33211 11.5623 10.816 11.5623C13.2999 11.5623 15.3321 9.53008 15.3321 7.04621C15.3321 4.56234 13.2999 2.53008 10.816 2.53008ZM10.816 12.7374C7.65469 12.7374 5.12476 10.1614 5.12476 7.04621C5.12476 3.93098 7.70076 1.35498 10.816 1.35498C13.9312 1.35498 16.5077 3.93098 16.5077 7.04621C16.5077 10.1614 13.9773 12.7374 10.816 12.7374Z" fill="#202244"/>
<path id="Fill 6" fill-rule="evenodd" clip-rule="evenodd" d="M10.8161 10.2072C9.09949 10.2072 7.65479 8.80631 7.65479 7.04593C7.65479 6.7307 7.92666 6.45838 8.24233 6.45838C8.55801 6.45838 8.82988 6.7307 8.82988 7.04593C8.82988 8.12889 9.68704 8.98877 10.77 8.98877C11.8557 8.98877 12.7124 8.12889 12.7124 7.04593C12.7124 5.96341 11.8557 5.10354 10.77 5.10354C10.4543 5.10354 10.1847 4.83438 10.1847 4.51599C10.1847 4.20031 10.4543 3.93115 10.77 3.93115C12.4866 3.93115 13.9313 5.32935 13.9313 7.09244C13.9313 8.85238 12.5331 10.2072 10.8161 10.2072Z" fill="#202244"/>
</g>
</svg>
