<svg width="24" height="16" viewBox="0 0 24 16" fill="none" xmlns="http://www.w3.org/2000/svg">
<path fill-rule="evenodd" clip-rule="evenodd" d="M0 15.9689H23.9532V0H0V15.9689Z" fill="#F3F3F3"/>
<path fill-rule="evenodd" clip-rule="evenodd" d="M0 3.99177H23.9532V1.99579H0V3.99177ZM0 7.98409H23.9532V5.9883H0V7.98409ZM0 11.976H23.9532V9.98007H0V11.976ZM0 15.9684H23.9532V13.9724H0V15.9684Z" fill="#D80027"/>
<path fill-rule="evenodd" clip-rule="evenodd" d="M0 8.59864H11.9766V0H0V8.59864Z" fill="#2E52B2"/>
<path fill-rule="evenodd" clip-rule="evenodd" d="M9.94365 1.38104L9.75067 1.9744H9.12695L9.6317 2.341L9.43872 2.9344L9.94365 2.5678L10.4482 2.9344L10.2552 2.341L10.7602 1.9744H10.1363L9.94365 1.38104ZM7.30679 1.38104L7.11395 1.9744H6.49009L6.99483 2.341L6.80204 2.9344L7.30679 2.5678L7.81135 2.9344L7.61855 2.341L8.1233 1.9744H7.4994L7.30679 1.38104ZM9.94365 3.52247L9.75067 4.11587H9.12695L9.6317 4.48247L9.43872 5.07564L9.94365 4.70923L10.4482 5.07564L10.2552 4.48247L10.7602 4.11587H10.1363L9.94365 3.52247ZM10.1363 6.25711L9.94365 5.6639L9.75067 6.25711H9.12695L9.6317 6.62371L9.43872 7.21711L9.94365 6.85052L10.4482 7.21711L10.2552 6.62371L10.7602 6.25711H10.1363ZM7.4994 6.25711L7.30679 5.6639L7.11395 6.25711H6.49009L6.99483 6.62371L6.80204 7.21711L7.30679 6.85052L7.81135 7.21711L7.61855 6.62371L8.1233 6.25711H7.4994ZM7.30679 3.52247L7.11395 4.11587H6.49009L6.99483 4.48247L6.80204 5.07564L7.30679 4.70923L7.81135 5.07564L7.61855 4.48247L8.1233 4.11587H7.4994L7.30679 3.52247ZM2.0332 1.38104L1.84022 1.9744H1.21631L1.72124 2.341L1.52826 2.9344L2.0332 2.5678L2.53776 2.9344L2.34478 2.341L2.84952 1.9744H2.22581L2.0332 1.38104ZM4.66988 1.38104L4.47708 1.9744H3.85317L4.35792 2.341L4.16513 2.9344L4.66988 2.5678L5.17444 2.9344L4.98164 2.341L5.48639 1.9744H4.86253L4.66988 1.38104ZM2.0332 3.52247L1.84022 4.11587H1.21631L1.72124 4.48247L1.52826 5.07564L2.0332 4.70923L2.53776 5.07564L2.34478 4.48247L2.84952 4.11587H2.22581L2.0332 3.52247ZM2.22581 6.25711L2.0332 5.6639L1.84022 6.25711H1.21631L1.72124 6.62371L1.52826 7.21711L2.0332 6.85052L2.53776 7.21711L2.34478 6.62371L2.84952 6.25711H2.22581ZM4.86253 6.25711L4.66988 5.6639L4.47708 6.25711H3.85317L4.35792 6.62371L4.16513 7.21711L4.66988 6.85052L5.17444 7.21711L4.98164 6.62371L5.48639 6.25711H4.86253ZM4.66988 3.52247L4.47708 4.11587H3.85317L4.35792 4.48247L4.16513 5.07564L4.66988 4.70923L5.17444 5.07564L4.98164 4.48247L5.48639 4.11587H4.86253L4.66988 3.52247Z" fill="#F3F3F3"/>
</svg>
